<?xml version="1.0" encoding="UTF-8"?>
<svg version="1.1" viewBox="0 0 1024 1024" xml:space="preserve" xmlns="http://www.w3.org/2000/svg"><defs><linearGradient id="linearGradient1217" x1="1811.2" x2="1742.6" y1="-10.192" y2="341.87" gradientTransform="translate(-91.077,357.11)" gradientUnits="userSpaceOnUse"><stop stop-color="#7a7a87" offset="0"/><stop stop-color="#7a7a87" stop-opacity="0" offset="1"/></linearGradient></defs><g transform="matrix(.3365 0 0 .3365 6.6779 4.8996)"><g transform="matrix(.90749 0 0 .90894 290.28 231.55)"><g fill="#fff"><path d="m529.69 2249.2-70.512 14.828c-82.604 17.371-161.26 33.502-179.18 36.748-9.1362 1.6554-20.47 2.3326-40.666 2.4278-27.301.1293-28.184.2182-35.334 3.6172-4.0333 1.9173-9.7327 5.4145-12.666 7.7714-16.298 13.096-31.334 40.267-31.334 56.625 0 6.9584 7.2094 22.103 22.49 47.242 5.9473 9.7843 11.739 20.884 12.871 24.666 4.8873 16.327 9.7791 56.641 15.959 131.54 4.6209 56.007 5.7756 65.238 8.7852 70.143 9.8125 15.993 69.214 56.28 118.81 80.58 18.664 9.1446 22.384 9.9218 56.42 11.789 29.398 1.6128 95.767 1.6667 118 .096 45.754-3.2324 72.724-9.9239 82.582-20.492 4.3968-4.7134 2.884-5.8815-11.465-8.8496-26.951-5.5748-35.117-11.602-35.117-25.918 0-8.5126 3.1381-13.868 17.686-30.164 13.878-15.546 21.182-25.671 27.303-37.85 4.8316-9.614 9.1781-22.945 7.8984-24.225-.50751-.5074-9.7653.9853-20.572 3.3164-25.542 5.5093-35.513 6.8487-51.197 6.8809-22.41.045-42.691-5.5261-56.252-15.457-7.518-5.5056-7.5174-5.1556-.0801-21.85 4.2255-9.4848 5.062-12.855 5.1309-20.666.0768-8.702-.11943-9.3614-2.9258-9.7598-1.6554-.2351-13.657 1.6792-26.668 4.2539-13.011 2.5746-29.909 5.3907-37.551 6.2598-17.611 2.0025-64.355 1.1375-67.225-1.2441-5.6173-4.6618-15.39-38.818-16.496-57.656-1.3879-23.638.64313-26.988 22.809-37.644 11.187-5.3785 17.242-9.2888 23.6-15.236 5.4348-5.084 10.496-8.5483 13.881-9.502 16.625-4.6847 81.397-4.9795 168.66-.7676 69.477 3.3535 74.441 4.1129 108.58 16.598 24.264 8.8738 38.322 11.658 49.344 9.7695 22.695-3.8876 49.328-25.917 62.043-51.32 6.596-13.178 7.554-19.376 4.7129-30.469-6.317-24.663-22.807-46.842-46.16-62.084-33.768-22.039-111.26-43.093-193.34-52.527z"/><path d="m1674.6 2126.7c-1.4542-.9359-2.1089-.7261-2.6347.1973-.6851 1.2028-7.4856 10.502-15.113 20.666-24.11 32.125-47.084 55.953-66.955 69.443-15.608 10.596-51.226 26.537-65.022 29.1-4.9479.9192-5.1178 1.1264-4.4277 5.3789 2.1126 13.018 13.355 25.472 30.473 33.758 9.1151 4.412 14.009 5.8518 24.574 7.2305l13.193 1.7207 20 12.428c24.39 15.156 80.616 52.916 141.33 94.916 24.933 17.247 52.91 36.545 62.172 42.885 9.2616 6.3397 17.285 12.597 17.83 13.906.545 1.3093 1.4543 7.5953 2.0195 13.967.8874 10.002 1.9368 13.489 7.6875 25.527l6.6601 13.941-5.1211 9.4395c-12.695 23.397-36.934 54.344-63.789 81.443-33.072 33.374-53.375 47.223-140.79 96.045-46.395 25.911-74.02 45.789-80.174 57.69l-2.0586 3.9805 4.4492-.6075c2.4475-.3346 14.351-3.6487 26.451-7.3632 46.801-14.367 91.386-21.682 132.15-21.682 17.558 0 22.804.501 33.34 3.1758 15.895 4.035 39.348 13.42 69.838 27.945 13.2 6.2886 24.949 11.459 26.109 11.49 1.1599.031 14.961-3.568 30.668-7.9961 36.692-10.345 75.753-20.134 98.557-24.701 32.58-6.5258 71.457-5.9319 105.28 1.6074 17.852 3.9795 27.343 7.262 47.291 16.363 8.0133 3.6562 15.063 6.3416 15.666 5.9687 1.8932-1.17 1.2387-4.5394-3.6816-18.939-18.604-54.446-78.791-171.69-118.5-230.83-15.81-23.549-16.91-25.721-20.613-40.727-4.0792-16.527-10.772-28.665-22.256-40.365-8.2678-8.4236-11.54-10.646-25.334-17.203-12.403-5.8956-17.691-9.2943-24.361-15.66-4.6857-4.4714-36.847-37.53-71.471-73.463-71.689-74.4-106.26-107.78-132.16-127.62-7.4702-5.7222-8.3297-6.9232-10.484-14.641-5.4429-19.494-13.916-32.632-33.367-51.738-3.7253-3.6594-5.9793-5.7418-7.4336-6.6778z"/><path d="m128.04 1065.3c-7.1616 0-25.176 29.379-53.42 87.125-19.545 39.96-25.963 57.475-31.834 86.875-6.0608 30.349-8.2808 52.567-9.0781 90.861-1.7446 83.795 11.291 163.4 41.762 255.03 26.482 79.641 61.667 153.05 97.75 203.95 39.328 55.468 99.5 117.65 164.12 169.61 52.762 42.425 118.67 86.893 181.33 122.34 4.0333 2.2818 6.6762 4.1636 5.873 4.1797-5.6954.1147-98.369-28.616-123.07-38.154-8.3583-3.2275-15.512-5.552-15.898-5.166-.38608.3861.29865 5.3123 1.5215 10.947 7.871 36.27 54.283 100.68 117.13 162.54 12.743 12.544 25.047 23.777 27.34 24.963 2.4566 1.2704 13.673 3.2825 27.305 4.8965 70.194 8.3112 121.28 20.384 157.96 37.328 24.847 11.479 41.439 25.883 60.824 52.799 11.158 15.494 16.973 22.043 21.023 23.682 1.1.4451 5.8528.5817 10.561.3027 7.1313-.4227 11.025-1.7347 23.338-7.8613 28.21-14.037 65.576-42.747 116.77-89.723 28.864-26.485 66.13-62.745 65.332-63.566-.3667-.3776-28.267 4.9333-62 11.801s-62.232 12.481-63.332 12.475c-2.8065-.016 3.5419-3.2798 20.701-10.643 98.461-42.248 212.56-57.825 321.5-43.892 44.595 5.7034 66.992 11.864 137.13 37.717 44.033 16.23 77.18 23.876 116.98 26.984 14.697 1.1477 15.305.205 8.5078-13.164-14.135-27.8-63.143-84.968-129.37-150.91-72.103-71.79-148.64-137.76-231.45-199.48-106.23-79.179-190.7-130.79-314-191.85-83.557-41.377-142.6-67.318-295.52-129.83-93.899-38.386-128.88-54.756-148.47-69.49-33.809-25.417-72.617-75.567-112.99-146.01-29.284-51.101-54.586-101.91-99.217-199.25-26.547-57.899-31.5-67.414-35.102-67.414z"/><path d="m2348.7 433.39-20 .0547 10.734 4.3984c11.692 4.7899 23.577 11.949 28.203 16.99 4.6864 5.106 7.4029 12.924 6.3867 18.377-1.6638 8.9306-12.918 36.71-22.467 55.451-19.321 37.922-44.699 71.262-81.699 107.33-86.816 84.638-207.63 146.8-358.87 184.65-42.866 10.727-100.3 21.186-135.62 24.697-8.0667.80192-16.55 1.7415-18.85 2.0879l-4.1817.63086 14.022 24.301c81.397 141.06 112.88 200.74 123.86 234.82 2.4784 7.6922 4.8117 12.504 6.6465 13.707 4.3687 2.864 17.52 7.2279 27.838 9.2383 12.678 2.4701 49.961 1.4962 76.717-2.0039 19.732-2.5813 54.917-9.1003 65.617-12.158 4.728-1.3511 5-1.7258 5-6.873 0-7.3072-5.3991-30.942-13.268-58.078-3.552-12.25-5.603-21.091-4.5566-19.646 20.073 27.711 40.918 45.864 62.785 54.678 23.598 9.5116 63.576 6.5704 107.41-7.9024 27.788-9.1739 61.399-24.937 63.205-29.642 2.0909-5.449-14.335-38.12-38.637-76.848-6.3247-10.079-11.236-18.324-10.914-18.324s3.747 2.0204 7.6113 4.4902c3.8642 2.4698 13.026 7.4937 20.359 11.164 69.192 34.631 130.3 26.291 179.49-24.498 14.253-14.714 33.172-38.645 33.172-41.959 0-7.1154-32.291-33.462-88-71.801-9.9-6.8131-16.499-12.086-14.666-11.719 1.8333.36775 10.833 2.1852 20 4.0391 26.53 5.3654 40.487 6.8345 64 6.7383 17.806-.0729 23.841-.60327 31.66-2.7852 34.922-9.7454 72.278-49.096 99.682-105 9.8741-20.145 19.011-43.031 20.266-50.762.5902-3.6368.092-4.5397-3.8379-6.9688-11.319-6.9953-51.602-17.728-113.77-30.312-34.62-7.0078-40.467-8.5101-36-9.25 36.405-6.0297 61.445-12.242 74.666-18.523 22.729-10.799 65.355-48.196 79.93-70.125 17.151-25.804 25.702-53.27 24.482-78.635-.4957-10.308.6065-9.7906-27.078-12.705-46.62-4.9078-198.6-11.494-261.33-11.324z"/><path d="m2308.7 431.62-134.67.76953c-121.04.69167-190.48 2.0222-245.21 4.6992l-18.529.90625-4.8144 12c-13.564 33.807-36.824 58.939-74.508 80.504-57.314 32.798-159.44 55.673-274.2 61.412-21.462 1.0734-24.124 1.4662-26 3.8457-1.1492 1.458-24.04 29.258-50.869 61.777-128.57 155.84-237.41 291.84-335.96 419.79-21.742 28.229-37.876 43.325-81.26 76.035-45.209 34.087-60.239 60.893-58.291 103.96 2.1387 47.28 36.411 104.77 103.62 173.82 68.58 70.458 170.89 147.84 217.33 164.37 9.7484 3.4706 14.573 3.7458 30.506 1.748 81.287-10.192 193.61-83.362 318.19-207.27 69.907-69.533 134.56-145.92 174.92-206.67 30.842-46.422 36.207-61.532 29.226-82.293-13.211-39.289-65.123-130.44-133.72-234.79-10.516-15.997-19.119-29.557-19.119-30.131 0-.57422 6.75-1.4335 15-1.9082 50.58-2.9106 125.55-15.282 187-30.863 68.101-17.266 124.46-37.621 179.33-64.77 32.879-16.266 47.055-24.404 75.334-43.254 31.481-20.984 54.92-40.114 80.766-65.922 32.868-32.819 56.882-64.536 76.996-101.69 10.562-19.511 22.904-47.871 22.904-52.629 0-9.4495-19.378-25.918-46.916-39.873z"/><path d="m1605.2 424.74c-5.8283-.36954-12.045-.24863-18.586.38282-23.883 2.3057-47.439 10.101-83.24 27.545-14.573 7.1007-46.278 24.499-48.264 26.484-.9506.95054 4.7914 11.527 11.068 20.387 18.919 26.703 49.008 38.829 78.875 31.787 16.568-3.9062 28.01-11.428 51.891-34.111 7.4637-7.0894 21.375-19.269 30.914-27.066 16.463-13.457 22.848-19.705 22.848-22.357 0-.65082-2.3757-3.762-5.2793-6.9121-8.753-9.4959-22.742-15.03-40.226-16.139z"/><path d="m468.36 390.67c-8.5395 0-18.858 5.0351-49.82 24.305-69.278 43.116-87.129 49.938-196.28 75.035-51.464 11.833-68.756 16.496-77.258 20.832-6.1926 3.1582-6.5907 6.9386-1.0332 9.8125 5.6941 2.9445 24.487 7.1811 38.229 8.6191 15.514 1.6235 53.892.61255 76.471-2.0137 48.713-5.666 117.64-20.834 162.67-35.797l14-4.6504 12.865-13.277c13.995-14.44 29.919-37.141 34.607-49.338 8.043-20.924 2.6122-33.527-14.445-33.527z"/><path d="m436.58 132c-2.4141 0-10.618 4.5326-23.799 13.148-94.907 62.036-157.88 87.814-294.69 120.63-43.959 10.543-50.14 12.998-56.348 22.379-4.7077 7.1138-5.5742 17.347-2.0176 23.846 3.2408 5.9212 8.8774 9.1034 29.611 16.721 67.148 24.669 156.78 42.949 238.05 48.549 22.101 1.5228 96.412.71828 117.29-1.2695 20.424-1.9451 25.194-3.2234 28.727-7.6992 6.8223-8.6445 1.2048-24.638-21.408-60.967-16.581-26.637-29.72-52.577-31.93-63.035-1.381-6.5363-1.4405-10.346-.27539-17.4 3.365-20.376 14.181-45.984 28.93-68.494l8.7988-13.43-4.2988-4.4356c-5.0764-5.2376-11.505-8.5391-16.629-8.5391z"/><path d="m696 32.451c-70.81-2.3785-116.82 11.134-165.92 48.732-57.573 44.083-100.83 116.2-94.24 157.11 2.9784 18.494 20.541 54.458 55.527 113.71 10.553 17.872 11.891 22.012 11.859 36.666-.0549 25.235-11.348 50.278-34.576 76.668-9.2454 10.504-13.982 18.128-13.982 22.51 0 3.976 6.2546 10.569 13.52 14.25 8.6714 4.3941 28.731 9.038 57.148 13.23 61.175 9.0251 76.86 14.417 74.086 25.469-1.1204 4.4639-16.649 20.601-29.42 30.572-22.479 17.551-46.199 30.011-108.71 57.098-90.168 39.073-142.88 67.619-195.96 106.13-119.76 86.879-189.55 202.47-201.28 333.41-2.099 23.419-1.3549 66.702 1.1465 66.65.44131-.01 5.5528-9.9305 11.359-22.047 14.647-30.563 26.409-50.021 36.793-60.867 7.1842-7.5041 9.4208-9.0703 12.949-9.0703 7.5075 0 9.6934 3.6745 38.082 64 67.156 142.71 106.57 216.57 149.05 279.33 34.734 51.316 63.528 81.15 91.201 94.498 13.543 6.5324 40.674 17.244 115.37 45.547 150.92 57.186 254.94 101.67 357.33 152.79 160.65 80.215 263.64 148.69 374.67 249.1 75.544 68.324 141.11 139.3 224.84 243.4 17.695 21.999 34.451 42.326 37.234 45.172l5.0606 5.1758 9.4882-.7188c5.5707-.4213 12.92-2.1123 17.801-4.0957 31.033-12.61 69.506-54.152 105.33-113.73l8.1348-13.527-4.6172-19.805c-25.705-110.27-68.832-198.67-120.96-247.92l-12.314-11.635 13.99 10.543c17.37 13.089 46.673 41.989 61.387 60.543 34.217 43.148 62.77 99.455 78.623 155.05 2.972 10.422 6.7804 25.548 8.4648 33.615l3.0625 14.666 17.904.418c36.462.8493 88.806-4.0393 127.12-11.871 57.008-11.654 95.739-28.213 150.79-64.465 20.333-13.391 38.583-27.522 40.732-31.539.9303-1.7384.9212-3.3661-.031-5.1445-1.8917-3.5347-24.846-22.215-46.525-37.865-9.8028-7.0763-17.251-12.865-16.551-12.865s7.2208.8952 14.49 1.9902c40.688 6.1278 90.281 2.8517 123.06-8.1289 15.419-5.1642 59.889-24.696 73.898-32.457 6.9779-3.8655 15.139-9.4562 18.137-12.424 13.072-12.942 5.4489-20.174-51.189-48.553l-30.639-15.352 13.307.9355c25.394 1.7876 67.593-3.1987 90.582-10.703 26.723-8.7235 51.129-24.272 74.154-47.246 16.805-16.768 25.208-28.92 26.223-37.918.7625-6.765-.099-7.6074-11.65-11.385-14.439-4.7216-78.756-17.039-109.09-20.893-8.582-1.0903-7.6314-2.3266 3.3965-4.418 13.403-2.5419 37.372-10.573 51.018-17.094 11.279-5.39 14.195-7.5958 26.705-20.203 21.231-21.395 39.391-49.974 38.389-60.41l-.4239-4.4102-12.666-1.2539c-17.579-1.7408-511.03-1.4501-686.09.4043l-141.43 1.4981-13.109 5.3359c-40.606 16.522-87.459 27.987-114.45 28.008-16.64.013-26.594-3.0162-52.641-16.018-46.176-23.05-93.036-54.373-139.62-93.332-92.92-77.706-153.26-158.64-165.34-221.77-8.7871-45.926 12.122-102.01 49.676-133.24 5.6803-4.7239 21.727-16.086 35.66-25.25 29.098-19.137 36.363-25.092 50.896-41.715 33.199-37.973 146.69-176 337.67-410.67l68.361-84 28.203-1.6152c52.935-3.0337 96.533-7.8934 141.54-15.775 65.81-11.525 111.93-27.205 145.46-49.455 14.911-9.8935 35.526-29.581 44.365-42.367 6.7964-9.8314 16.17-27.849 16.17-31.082 0-2.3549-9.3426-2.2079-62 .97657-61.006 3.6893-120.38 8.4655-149.33 12.012-19.356 2.371-33.428 10.653-87.598 51.559-47.998 36.245-55.789 40.024-77.795 37.742-34.892-3.6182-61.471-20.875-77.732-50.471l-3.5412-6.4453-266.67 223.93c-164.61 138.23-268.88 224.9-272.46 226.47-13.877 6.0901-87.548 33.123-116.31 42.678-50.198 16.678-73.542 21.84-87.184 19.281-7.0339-1.3196-15.698-10.348-18.762-19.551-8.895-26.717 6.3682-65.978 38.777-99.744 15.264-15.902 24.671-22.681 65.936-47.51 73.053-43.956 104.07-67.05 140.71-104.78 37.955-39.077 64.532-79.351 85.76-129.96 26.519-63.229 42.293-150.94 39.787-221.22-1.3126-36.814-11.108-71.93-33.316-119.43-30.574-65.396-95.339-153.9-128.27-175.29-38.72-25.151-122.94-45.633-198-48.154z"/><path d="m680.39 3.1348c-10.353.061001-20.624.3816-30.954 1.2324-2.5277.20211-5.1951.46864-7.6927.72853-9.5955 1.0458-19.137 2.594-28.559 4.6973-1.134.25825-2.4378.54571-3.5749.82277-9.0647 2.1678-18.044 4.7152-26.869 7.716-15.197 5.3267-29.623 12.666-43.377 21.002-10.261 6.2547-20.307 13.228-29.797 20.638-14.994 11.703-28.994 24.721-41.503 39.051-2.4584 2.6423-4.862 5.4154-7.8615 7.4633-1.1875.81495-2.8126 1.315-4.1457.53519-2.7988-1.0071-5.8085-1.7355-8.6163-2.4585-3.6181-.80093-7.2274-1.9316-10.965-1.9238-3.7226.15019-7.3183 1.2456-10.922 2.0969-5.1507 1.2822-9.9457 3.6603-14.445 6.4342-2.2813 1.3762-4.7094 2.9605-6.9668 4.4396-23.848 15.996-48.47 30.838-73.672 44.602-15.229 8.2939-30.703 16.157-46.6 23.097-23.664 10.482-47.979 19.459-72.662 27.231-34.83 10.98-70.255 19.915-105.73 28.53-11.902 2.9458-23.833 5.8342-35.528 9.5375-5.2581 1.7265-10.505 3.6087-15.352 6.3125-.58306.32822-1.4316.82701-2.0988 1.2549-5.4358 3.3704-9.6421 8.3046-13.411 13.392-2.8336 3.6826-5.3735 7.664-6.8187 12.111-1.3722 3.9888-2.2476 8.1226-3.2052 12.224-.41483 1.8997-.89018 4.0022-1.0915 6.0189-.4775 4.2959.78474 8.5111 1.6211 12.681 1.8322 8.2575 5.2899 16.311 10.979 22.659 3.1142 3.524 6.7645 6.5953 10.903 8.8499 3.6532 2.0825 7.512 3.8909 11.297 5.5471 11.207 4.8649 22.916 8.934 34.596 12.73 17.7 5.7146 35.64 10.735 53.694 15.355 20.104 5.135 40.449 9.7595 60.809 13.782 20.313 4.0198 40.7 7.3642 61.261 9.9131 14.458 1.8106 28.939 3.2582 43.5 4.3641 10.413.8161 20.81 1.3176 31.262 1.9049 5.1317.33804 10.278.57357 15.385 1.1941.66452.0957 1.403.3671 1.8779.78829.0822.70495.66684 1.4602.14391 2.1048-.61981 1.3264-2.1236 1.8676-3.2899 2.6143-7.5572 4.094-15.364 7.7064-23.155 11.326-7.3029 3.3229-14.611 6.6636-22.125 9.4853-10.898 3.9086-22.065 7.0088-33.233 10.038-30.067 8.0438-60.432 14.93-90.733 21.985-12.772 3.0192-25.606 6.0049-38.299 9.4199-1.7039.47793-3.6164.99529-5.3927 1.5214-7.3019 2.1473-14.59 4.6453-21.153 8.5647-6.7877 4.1046-12.467 10.306-15.17 17.835-2.7713 7.5372-2.4972 15.978-.0336 23.555 1.69 4.1914 4.6527 7.723 7.7611 10.943 3.4947 3.4561 7.3901 6.6878 11.99 8.5444 5.9241 2.1655 12.061 3.6817 18.171 5.2176 8.5275 2.0511 17.101 3.983 25.788 5.2234 5.755.6808 11.569.86019 17.315 1.0235 11.753.27544 23.513.15784 35.263-.22061 6.1293-.22175 12.518-.50737 18.641-.98305 9.7822-.79323 19.514-2.1119 29.227-3.4986 25.911-3.8101 51.625-8.882 77.152-14.718 10.073-2.3173 20.239-4.7939 30.246-7.3898 12.18-3.1464 24.224-6.5287 36.283-10.117 4.4448-1.2667 8.8657-2.6943 13.431-3.4657 2.2233-.39893 4.6576-.2492 6.556 1.0936 6.9896 4.3411 13.955 8.9291 21.797 11.6 4.3001 1.5546 8.854 2.78 13.196 3.8865 4.0611 1.0136 8.0104 1.9234 12.131 2.805 10.075 2.164 20.235 4.0212 30.452 5.6735 10.414 1.6495 20.946 3.1107 31.439 4.6708 1.149.16834 2.2979.33667 3.4469.505-7.3887 4.5316-14.702 9.1884-22.153 13.617-15.006 8.7583-30.722 16.217-46.496 23.472-17.688 8.1266-35.609 15.726-53.407 23.603-25.327 11.243-50.455 22.955-75.114 35.603-27.623 14.185-54.735 29.681-80.614 46.943-15.596 10.382-30.82 21.324-45.615 32.819-39.263 30.581-75.022 65.992-104.72 106.04-12.918 17.407-24.683 35.671-35.133 54.664-1.9677 3.5815-3.9631 7.3356-5.8705 11.022-3.7369 7.2646-7.3654 14.763-10.737 22.272-5.0344 11.193-9.6869 22.672-13.724 34.322-5.4556 15.661-10.046 31.8-13.837 48.017-5.5813 24.064-9.5609 48.797-11.26 73.57-.39352 5.9021-.64752 11.774-.7385 17.656-.1108 6.9929-.02455 14.012.28254 20.95.37111 8.1002.97696 16.131 2.2137 24.17.76339 4.62 1.5956 9.3027 3.5472 13.592.80172 2.6524-.24078 5.3908-1.1043 7.8909-1.9755 5.3297-4.5503 10.408-6.7355 15.65-4.6408 11.112-8.2247 22.806-11.281 34.508-3.4434 13.272-6.32 26.69-8.7501 40.184-1.7949 10.122-3.2699 20.204-4.4502 30.42-1.6598 14.315-2.7168 28.763-3.218 43.229-.4981 14.387-.43385 28.946.12487 43.337.64837 16.478 1.9473 33.022 3.8157 49.372 4.6725 41.179 12.966 81.957 23.422 122.07 9.452 36.258 21.138 72.01 34.813 106.96 4.9037 12.526 10.014 24.972 15.377 37.31 7.5828 17.222 15.727 34.342 24.146 51.227 3.2539 6.4863 6.6083 13.037 10.022 19.368 1.8168 3.3637 3.6403 6.5779 5.5996 9.8476 8.363 14.033 17.53 27.885 26.973 41.289 13.377 18.937 27.504 37.353 42.485 55.052 8.4289 9.7637 17.307 19.098 26.238 28.382 15.691 16.209 31.689 32.123 48.072 47.633 7.6078 7.1759 15.334 14.321 23.293 21.028 17.571 14.912 35.416 29.42 53.616 43.552 6.1593 4.7553 12.342 9.4632 18.702 13.995 2.0562 1.4571 4.2243 2.9502 6.3262 4.418-1.7321 2.5259-3.6518 4.9284-5.2442 7.5466-2.6006 4.6817-4.2378 9.8869-4.971 15.185-.64649 4.2958.20609 8.6188 1.0238 12.829.28347 1.34.62793 2.9061.9748 4.3253 1.7419 7.1831 3.9589 14.352 6.4295 21.249 1.3731 3.7719 2.7734 7.373 4.42 11.05 1.3545 3.0457 2.9765 6.1503 4.4863 8.9993 8.0265 14.833 17.453 28.859 27.3 42.534 14.677 20.244 30.499 39.657 47.166 58.335 4.7481 5.3466 9.7055 10.643 14.585 15.93 3.1108 3.4965 6.2823 6.9722 8.916 10.852.67856 1.019 1.396 2.4569.57556 3.5888-.59768.9705-1.9001 1.0894-2.9064 1.4281-8.5906 2.1794-17.273 3.971-25.929 5.8635-31.111 6.6465-62.271 13.064-93.429 19.487-25.878 5.326-51.76 10.631-77.641 15.941-12.302.094-24.605.073-36.906.2506-4.5439.086-8.9965.235-13.539.5091-2.0966.1349-4.3582.3033-6.5137.5137-.70472.074-1.6796.1671-2.3796.2547-8.3877.932-16.762 2.8005-24.387 6.5082-3.3147 1.6-6.6758 3.4852-9.6086 5.5457-8.2315 5.8193-15.369 13.052-21.84 20.747-6.9366 8.3596-13.162 17.39-17.812 27.23-2.8947 6.1079-4.6835 12.657-6.4056 19.17-1.1617 4.5812-2.1705 9.2108-2.8355 13.892-.64983 4.3613.42867 8.6988 1.3387 12.938.35653 1.5824.78843 3.3718 1.2608 5.0128 1.2835 4.5603 2.9736 8.998 4.9052 13.321.73108 1.6383 1.5842 3.4498 2.4165 5.13 3.7712 7.6065 8.0436 14.995 12.36 22.244 4.4622 7.5357 9.0036 15.029 13.217 22.707 1.6871 3.2773 2.3729 6.9484 3.1578 10.519 2.1014 10.747 3.3792 21.633 4.6542 32.502 2.7935 24.771 4.9811 49.606 7.1212 74.442 1.2991 15.138 2.5222 30.304 3.9964 45.407 1.0514 10.164 2.094 20.454 4.1176 30.52.75213 3.6131 1.7056 7.3894 3.0445 10.913.29718.7705.60222 1.5332.89065 2.1823 2.4254 5.6964 6.4004 10.535 10.588 15.023 6.8468 7.4804 14.767 13.873 22.766 20.067 15.782 12.069 32.375 23.041 49.275 33.473 11.356 6.958 22.901 13.655 34.617 19.866 6.3078 3.3383 12.782 6.5915 19.211 9.5352 7.9038 3.5528 15.957 6.9966 24.498 8.6845 4.8399 1.0164 9.8511 1.7476 14.688 2.3253 4.6155.5413 9.2565.9632 13.859 1.3085 18.534 1.3436 37.216 1.695 55.864 1.8945 18.617.1293 37.238.1602 55.852-.2245 12.328-.2681 24.648-.7811 36.856-2.0712 9.4301-1.0104 18.825-2.3871 28.135-4.1985 10.064-2.0364 20.005-4.46 29.863-7.4553 4.2792-1.3523 8.6147-2.6886 12.514-4.9627 7.9323-4.3563 15.357-10.149 20.184-17.919 1.7183-2.7705 3.0627-5.7785 3.9241-8.9246.0922-.362.28481-1.0875.39173-1.5998.60976-2.7754.84504-5.6301.7235-8.4685-.0132-.3441-.0631-1.11-.10547-1.6133-.62569-6.6063-2.8092-13.316-7.4212-18.235-4.7634-5.1271-11.39-8.0007-18.003-9.9027-5.5708-1.4986-11.211-2.7277-16.811-4.1115-.69237-.1664-1.3847-.3328-2.0771-.4992 2.5104-2.3863 5.1485-4.6427 7.5666-7.1233 4.9343-5.3647 9.383-11.153 13.799-16.945 4.1298-5.5356 8.2644-11.092 11.824-17.018.65643-1.0862 1.3765-2.3929 1.9241-3.3827 5.1397-9.5823 9.2333-19.731 12.187-30.196.99245-3.8656 2.1962-7.7456 2.308-11.764-.0374-3.3702-.92596-6.6719-1.9584-9.8584-2.1832-6.4942-6.4372-12.425-12.392-15.942-4.1933-2.5575-9.0651-3.7123-13.887-4.3498-5.9075-.6282-11.795.5977-17.582 1.6433-8.3158 1.6295-16.579 3.5372-24.959 4.8274-13.227 2.0879-26.65 3.4238-40.05 2.7031-4.4725-.3084-8.9549-.6627-13.378-1.4113-.90232-.1661-1.9558-.4448-2.317-1.3862-.52431-1.4787.0123-3.072.17706-4.576 1.0453-6.385 3.0634-12.579 3.8628-19.007.65188-5.3795-.86028-10.677-2.026-15.877-.91745-3.8532-1.8867-7.8894-4.53-10.972-2.3172-2.7552-4.8958-5.2917-7.5983-7.6674-2.4065-2.1316-5.4259-3.3871-8.5071-4.1826-4.1536-1.0983-8.3499-2.0305-12.522-3.0556-17.646 3.4656-35.233 7.3021-53.04 9.8729-12.494 1.8382-25.107 2.7004-37.721 3.1429-4.5485.1324-9.1179.439-13.659.012-2.2831-.1915-4.7095-1.1295-5.8924-3.2125-1.6103-2.8779-2.4153-6.118-3.2766-9.2781-1.9484-7.5505-3.1066-15.279-3.9086-23.028-.12042-1.0528-.24113-2.1056-.36293-3.1582 4.3357-2.0987 8.736-4.0681 13.025-6.2597 4.7561-2.5836 9.4126-5.5852 13.805-8.6114 5.5336-3.8562 10.767-8.1185 16.146-12.184.62174-.4269 1.1893-1.0142 1.8449-1.3407 24.441.061 48.882.042 73.322.1604 32.672.2681 65.341 1.1063 97.975 2.706 15.197.7884 30.4 1.6436 45.533 3.2651 10.831 1.2413 21.211 4.7967 31.439 8.4077 10.803 3.8681 21.679 7.581 32.802 10.429 3.1902.805 6.5546 1.5705 9.8516 2.1758 5.6908 1.0466 11.668 1.7021 17.544 1.4612 15.673-.5148 30.94-5.7844 44.282-13.878 15.821-9.5803 29.155-22.914 39.836-37.941 2.1736-3.0454 4.2858-6.3721 6.1329-9.4805 3.3995-5.8898 6.6002-11.969 8.6115-18.489.71031-2.2378.77519-4.9109 2.6961-6.5449 2.0711-1.7386 4.821-2.268 7.3486-3.0167 5.9534-1.5044 11.92-3.0284 17.654-5.2529 7.8495-2.9563 15.265-6.9418 22.434-11.271.96813-.5935 2.1776-1.3208 3.138-1.9285 16.803-10.499 32.71-22.361 48.225-34.663 26.073-20.787 51.059-43.086 75.406-65.926 11.746-11.066 23.39-22.229 34.843-33.619 5.6285-5.7067 11.328-11.387 16.258-17.723 2.6709-3.4643 5.0576-7.3141 5.8707-11.675.3385-1.789 1.7737-3.1729 3.4711-3.7233 3.3844-1.1666 6.9786-1.5141 10.496-2.0821 8.1324-1.1346 16.271-2.237 24.418-3.2635 13.326-1.4696 26.727-2.1152 40.119-2.6304 20.028-.705 40.08-.9426 60.115-.3954 7.91.2155 15.81.7059 23.692 1.3911 21.107 1.7214 42.231 4.0587 62.899 8.8065 22.886 5.1877 45.084 12.937 67.114 20.933 12.582 4.623 25.125 9.361 37.846 13.592 8.3115 2.7947 16.596 5.4021 25.021 7.8524 5.422 1.5697 10.887 3.0635 16.395 4.4699 9.9201 2.5127 20.073 4.764 30.21 6.5658 4.5406.817 9.0008 1.5303 13.583 2.1881 8.1132 1.1562 16.4 2.0619 24.602 2.7053 3.447.2824 6.8939.565 10.341.8474 1.3096 3.5136 2.3893 7.1177 3.8941 10.555 3.5126 7.6583 8.9252 14.284 14.891 20.165.2919.2842.8682.8294 1.2689 1.2135 7.9833 7.4667 17.111 13.758 27.059 18.31 6.6549 2.8085 13.603 4.8584 20.579 6.7022 4.3892 1.0828 8.8019 2.2162 13.32 2.5849 2.23-.041 4.1985 1.1955 6.1463 2.1221 7.4557 3.9456 14.581 8.4778 21.725 12.952 19.224 12.192 38.138 24.865 57.014 37.589 31.427 21.194 62.578 42.794 93.76 64.347 13.671 9.4222 27.336 18.86 41.073 28.181 2.8827 2.1218 5.8396 4.2743 8.0439 7.1309 1.1178 1.4199 1.0741 3.3097 1.5101 4.9856.9993 4.951 1.7865 9.9576 3.2791 14.794 1.1976 4.2734 2.7779 8.4235 4.4874 12.515.6388 1.5835 1.2801 3.1659 1.9168 4.7503-3.3114 5.4444-6.4913 10.98-10.229 16.149-7.7836 10.923-16.335 21.277-25.144 31.383-10.223 11.695-21.007 22.892-32.176 33.684-9.3699 9.0198-19.347 17.418-29.974 24.923-14.361 10.185-29.533 19.156-44.744 27.996-26.162 15.185-52.845 29.465-78.785 45.035-12.216 7.3626-24.204 15.071-35.365 24.01-3.8323 3.0777-7.5704 6.1935-11.241 9.4988-1.788 1.6315-3.4972 3.3476-5.1384 5.1263-.2617.2877-.8006.8949-1.1684 1.3049-.338.4077-.9607 1.1149-1.3988 1.6612-5.4385 6.6291-9.7394 14.512-10.784 23.126-.8667 7.1776.6834 14.685 4.5444 20.818 3.3441 5.2864 8.6923 9.0648 14.53 11.152 3.0281 1.0764 6.1669 1.8814 9.3511 2.3209 3.4202.329 6.8877-.5747 10.112-1.3188 9.9565-2.5364 19.77-5.5933 29.633-8.4664 19.77-5.883 39.775-11.143 60.171-14.359 20.441-3.268 41.121-4.6736 61.78-5.6916 6.8125-.2897 13.704-.4139 20.421.9524 8.7426 1.6275 17.138 4.6732 25.424 7.8325 15.943 6.1731 31.445 13.406 46.907 20.681 6.0218 2.7692 12.117 5.4595 18.2 7.9571 4.1619 1.6855 8.3391 3.3866 12.719 4.4284 2.0592.5252 4.1136 1.167 6.176 1.6192 4.0014-.8039 7.9144-1.8795 11.901-2.8985 33.017-8.5791 65.689-18.472 98.907-26.268 16.954-3.9508 34.14-7.2662 51.562-8.1305 10.484-.5158 20.992-.3662 31.474.1208 14.511.7025 29.017 2.6667 42.988 6.7371 11.601 3.3032 22.765 7.9481 33.719 12.96 6.572 2.8737 13.221 5.7718 20.283 7.2067 4.7444.9992 9.7035.8055 14.377-.4663 5.6274-1.3771 11.106-4.112 14.836-8.6517 4.2806-5.1432 6.1947-11.753 7.3978-18.216.8578-4.2764-.2949-8.5784-1.2548-12.731-1.4665-6.4123-3.3811-12.711-5.5225-18.928-.4129-1.1609-.8706-2.513-1.2986-3.694-2.1228-5.9299-4.4395-11.933-6.8035-17.776-6.1746-15.267-12.945-30.422-19.916-45.354-14.312-30.57-29.672-60.646-45.887-90.249-11.973-21.788-24.38-43.305-37.736-64.266-5.4752-8.676-11.365-17.049-16.942-25.692-3.3329-5.2157-6.5369-10.619-8.2765-16.604-1.5464-5.0754-2.4404-10.333-4.2292-15.338-.7269-2.1592-1.631-4.4828-2.4482-6.4623-5.3038-12.507-12.72-24.135-21.909-34.146-4.7737-5.1718-10.111-9.8523-16.077-13.606-6.6661-4.3196-13.624-8.1846-20.812-11.565-3.3921-1.6776-6.8399-3.2772-10.198-5.0028-27.918-28.681-55.768-57.46-83.832-85.977-25.276-25.647-50.625-51.173-76.409-76.299-10.232-9.9176-20.458-19.852-31.107-29.325-5.5836-4.8512-11.341-9.4982-17.001-14.259-1.1835-1.0321-2.4884-1.9808-3.5971-3.0644-1.6652-4.8667-3.295-9.8544-5.005-14.638-1.2165-3.2039-2.3033-6.4807-3.9021-9.5198-2.8744-4.9568-6.2659-9.5901-9.6467-14.209-2.3967-3.1974-4.9228-6.4994-7.5651-9.5799-2.1901-2.5587-4.6954-4.9806-6.0716-8.1076-.5778-1.2448-.1662-3.0056 1.2422-3.4511 2.3434-.6369 4.8036-.6741 7.2103-.9159 10.356-.8351 20.782-.9686 31.112-1.6362 10.478-.6451 20.819-1.5671 31.247-2.7529 16.502-1.8637 33.093-4.3845 49.476-7.4773 4.9614-.9518 9.8496-1.9245 14.809-2.9943 10.137-2.1623 20.447-4.6649 30.454-7.4101 6.8684-1.8971 13.846-3.9911 20.604-6.251 9.558-3.1722 19.057-6.9094 28.247-11.156 17.668-8.1403 34.743-17.516 51.443-27.479 15.296-9.1846 30.297-18.892 44.637-29.518 7.4431-5.5814 14.805-11.339 21.354-17.969 4.9112-4.9114 8.8844-10.996 10.335-17.862 1.2857-5.7992.6675-11.842-.8035-17.544-.5434-1.9596-.9578-4.0024-1.9041-5.8134-.9875-1.2037-.492-3.1205.8593-3.8204 1.998-1.0723 4.3301-1.2155 6.5361-1.538 8.6183-.9947 17.119-2.7914 25.593-4.6109 4.4199-.9636 8.8364-2.007 13.179-3.0757 4.0452-1.0191 8.0605-2.07 12.096-3.2872 3.3641-1.0156 6.5451-2.1739 9.8312-3.3763 4.2526-1.564 8.5863-3.2714 12.794-4.9929 10.16-4.1585 20.217-8.6443 30.084-13.313 11.133-5.3138 22.112-10.791 32.752-17.027 6.8924-3.9968 13.474-8.6557 18.944-14.488 2.9193-3.1043 5.5152-6.5237 7.589-10.251.1654-.3241.5486-1.0073.7781-1.48 2.0594-4.0543 3.4368-8.4663 3.925-12.993.022-.307.1092-1.0908.129-1.5831.5658-8.4279-2.1627-16.81-6.6322-23.885-2.6076-4.0074-5.3855-8.049-8.0652-12.083 6.7028-1.735 13.487-3.237 19.981-5.677 12.398-4.5196 24.195-10.811 35.284-17.806 16.042-10.216 30.999-22.17 44.352-35.72 8.8961-9.1006 17.159-18.935 23.635-29.926 1.847-3.1214 3.5255-6.3541 4.7094-9.7904 1.3746-3.7762 2.5514-7.7006 3.3666-11.564.6081-2.8536 1.2882-5.9449.9379-8.9476-.1027-1.0033-.3294-2.2433-.5004-3.0777-.8138-3.7463-1.7275-7.7002-3.3916-11.272-2.5398-5.7804-7.0038-10.595-12.357-13.892-7.2876-4.5722-15.664-6.9247-23.936-9.0031-3.3037-.8828-6.6341-1.695-9.9011-2.6986-1.3438-.5248-1.6677-2.2372-1.1106-3.4561 1.2139-2.748 3.1958-5.0624 5.0104-7.4272 3.9831-4.9132 8.2075-9.6271 12.128-14.593 9.1473-11.478 17.721-23.534 24.221-36.732 1.9411-3.949 3.6554-8.0118 5.0763-12.177.1335-.4314.3943-1.2056.5742-1.7695 1.2291-4.0629 2.2577-8.2043 2.8281-12.414.4804-3.7625-.3268-7.5234-1.1855-11.17-.091-.3276-.2826-1.0419-.4277-1.5117-1.6436-5.3777-4.5801-10.372-8.5801-14.334-.2247-.2239-.7943-.7685-1.1686-1.1015-.7224-.6501-1.4778-1.2628-2.2552-1.8458-.2623-.1922-.8879-.6554-1.3082-.9251-4.4411-3.0661-9.9108-3.9204-15.142-4.6265-.6947-.084-1.7637-.2074-2.6086-.2977-1.9357-.1944-3.7321-.3487-5.6962-.4939-6.1531-.4469-12.483-.7023-18.679-.9091-21.927-.6756-43.865-.8814-65.8-1.155-32.717-.3927-65.438-.3872-98.157-.4359-89.447-.05-178.89.1898-268.34.5377-69.577.2922-139.16.6272-208.73 1.2693-24.666.2071-49.33.617-73.993 1.0321-9.8356.1616-19.671.3223-29.507.4846 10.628-8.0071 21.333-15.963 31.891-24.008 26.142-19.997 51.274-41.299 75.473-63.604 24.519-22.577 48.225-46.048 71.506-69.895 28.279-29.029 55.621-58.991 81.447-90.23 16.026-19.366 31.501-39.12 46.513-59.274 11.776-16.036 23.057-32.434 33.935-49.091 4.5106-6.9869 8.926-13.821 12.995-21.074 2.2124-4.1119 4.3423-8.2679 6.5184-12.399 6.977 1.6013 13.917 3.3709 20.925 4.8321 3.0312.6004 6.0911 1.0566 9.1687 1.3378.6449.052 1.6054.1418 2.3759.1886 6.0772.4019 12.123.4073 18.243.409 3.2362-.011 6.4745-.065 9.6478-.1729 4.7168-.1469 9.4608-.3879 14.109-.7023 17.315-1.1586 34.567-3.225 51.678-6.115 10.153-1.7508 20.513-3.8098 30.57-6.0779 3.9005-.8762 7.8181-1.802 11.602-2.7463 5.5106-1.4404 11.068-2.7888 16.398-4.8228 2.5442-1.0513 4.635-2.9427 6.5711-4.8546 4.1877-4.3267 7.247-9.795 8.4473-15.716.5469-1.974.9584-4.1905 2.5059-5.6551 1.0969-1.0448 2.7741-.9606 4.0609-.3352 7.2624 2.6353 14.919 3.9719 22.549 5.0214 5.2123.6837 10.526 1.156 15.703 1.4346 6.0657.3263 12.119.4061 18.235.1821 5.9625-.1966 12.11-.8108 18.086-1.7684 5.3944-.831 10.742-1.849 16.033-2.9977 6.8955-1.4905 13.648-3.1957 20.469-5.0876 11.845-3.3123 23.68-7.1792 35.187-11.518 13.011-4.9465 25.861-10.434 38.006-17.264 5.6928-3.2718 11.344-6.774 16.096-11.349 4.3516-4.2481 7.6617-9.6831 8.8211-15.697 1.5064-7.4474.2469-15.134-1.7626-22.361-1.113-4.1826-2.8385-8.1917-3.7234-12.434-.3256-1.3735-.061-3.1773 1.3875-3.7889 1.3662-.62 2.7862.2476 4.1654.381 3.6223.68 7.2678 1.2332 10.919 1.7362 1.1594.1488 2.566.3133 3.8259.4348 2.8817.2859 5.6942.4761 8.6204.5829 3.9351.1468 8.0825.1235 12.03-.051 23.843-1.1147 47.482-7.3615 68.739-18.342 9.0968-4.6711 17.542-10.498 25.625-16.737 8.4142-6.5112 16.182-13.824 23.443-21.592 9.7647-10.46 18.894-21.692 27.86-32.911 2.8813-3.7319 5.9593-7.3735 8.1567-11.569.9891-1.9159 1.5701-4.0069 2.0496-6.0997.088-.39826.2566-1.1559.3686-1.7002.7323-3.2976 1.1659-6.7331.476-10.079-1.0616-5.2845-2.4293-10.626-5.2343-15.285-3.261-5.3876-7.6824-9.9358-11.988-14.486-3.5784-3.7151-7.1637-7.4236-10.745-11.136 7.7056-1.8222 15.451-3.4829 23.124-5.4403 3.5548-.92728 7.0798-1.9927 10.49-3.3663.9629-.39684 2.1641-.90286 3.1985-1.3918 6.1609-2.8918 11.853-6.6575 17.53-10.384 1.1619-.79171 2.5262-1.7038 3.7394-2.58 12.46-8.9218 23.567-19.611 33.744-31.036 5.7977-6.5219 11.268-13.332 16.444-20.357 1.1416-1.5762 2.4092-3.3125 3.5699-4.9708 1.8834-2.6801 3.7375-5.4085 5.4945-8.0935 10.098-15.426 18.689-31.801 26.281-48.59 5.8084-13.019 11.121-26.419 14.985-40.202 1.1094-4.3016 2.4772-8.589 2.7922-13.044.1199-3.577-.7107-7.1076-1.6485-10.536-1.5512-5.4402-4.5867-10.458-8.8075-14.24-5.9112-5.3461-13.268-8.7133-20.603-11.629-.5626-.20769-1.4345-.54259-2.1158-.79908-2.0296-.75559-4.32-1.557-6.4783-2.2688-9.1652-3.0206-18.499-5.4869-27.758-8.1974-2.4735-.70981-4.9472-1.4188-7.4211-2.1273 5.4609-4.014 10.987-7.9414 16.4-12.019 8.5446-6.709 16.449-14.188 24.189-21.799 8.7538-8.7219 17.295-17.687 25.074-27.298 4.3644-5.3918 8.0164-11.312 11.526-17.282 11.249-19.388 18.98-40.952 21.552-63.267 1.0128-8.8588 1.3218-17.82.6228-26.715-.053-.70982-.1358-1.3665-.2129-2.1534-.7474-6.5049-2.3755-13.199-6.5108-18.434-2.8627-3.6136-6.6891-6.4202-10.869-8.3279-5.6972-2.444-11.832-3.6178-17.906-4.7011-10.153-1.7113-20.402-2.7506-30.623-3.6757-18.626-1.6418-37.382-2.7472-56.064-3.78-30.511-1.6047-61.044-2.7584-91.578-3.8288-33.812-1.1483-67.62-2.1642-101.45-2.7736-10.765-.16611-21.534-.34008-32.299-.10219-16.21-.0885-32.418-.4104-48.626-.68751-19.253-.38412-38.509-.64832-57.766-.69341-51.77-.14218-103.54.53077-155.3 1.5921-50.614 1.0761-101.2 2.5333-151.77 4.7375-36.58 1.5905-73.12 3.7723-109.65 6.2953-25.151 1.7748-50.348 3.6782-75.47 6.0376-10.265.99255-20.533 1.9865-30.77 3.4443-5.2305.77592-10.391 1.9463-15.588 2.9166-4.4432-4.6783-8.6338-9.6503-13.737-13.644-8.1446-6.5846-17.925-10.805-27.931-13.666-5.3943-1.524-10.852-2.8479-16.369-3.8481-7.5289-1.2944-15.227-.82443-22.786-.61147-3.2663.11929-6.5285.26123-9.7294.49164-7.1204.45443-14.163 1.7161-21.082 3.4308-4.5274 1.1032-9.011 2.2697-13.422 3.5524-10.772 3.1296-21.365 6.9359-31.686 11.221-15.332 6.3362-30.233 13.776-44.989 21.463-12.808 6.753-25.52 13.815-37.204 22.406-3.8866 2.875-7.5289 6.0628-11.28 9.1095-27.834 23.073-55.555 46.268-83.297 69.452-114.45 95.713-228.67 191.7-342.96 287.61-33.62 28.219-67.243 56.436-100.86 84.657-22.564 8.7376-45.161 17.387-67.905 25.642-24.431 8.8589-48.967 17.455-73.802 25.121-10.648 3.2393-21.337 6.4087-32.23 8.7269-3.7484.7751-7.5337 1.3548-11.301 2.0273.37363-4.6936.60033-9.4006 1.0708-14.085 1.1486-8.5116 4.4761-16.559 8.3807-24.148 6.43-12.242 14.727-23.461 24.197-33.517 7.3609-7.7788 15.544-14.83 24.65-20.497 15.454-9.9106 31.198-19.359 46.888-28.888 20.08-12.288 39.988-24.875 59.375-38.236 11.781-8.0832 23.232-16.847 34.307-25.959 12.51-10.299 24.701-21.295 36.176-32.77 20.157-20.131 38.454-42.053 54.426-65.639 4.8478-7.1414 9.5503-14.567 13.96-21.992 13.495-22.737 24.917-46.788 34.249-71.559 4.9898-13.226 9.4515-26.846 13.316-40.404 7.269-25.584 12.75-51.778 16.596-78.153 1.464-10.177 2.6725-20.332 3.7002-30.555 1.6376-16.487 2.8327-33.092 3.3081-49.657.2385-10.286.3575-20.607-.6392-30.86-.8541-8.1338-2.0678-16.265-3.6077-24.347-.8046-4.2269-1.6644-8.2936-2.6379-12.507-1.2777-5.4836-2.674-10.901-4.2044-16.283-1.6039-5.6565-3.3478-11.278-5.2021-16.807-10.158-30.297-23.895-59.299-39.607-87.09-13.246-23.355-27.926-45.988-43.604-67.823-6.9725-9.6781-14.169-19.196-21.642-28.494-9.1201-11.31-18.711-22.444-28.976-32.812-8.046-8.0472-16.482-15.847-26.17-21.895-14.489-9.2119-30.358-16.022-46.49-21.783-4.4849-1.5807-9.0196-3.0997-13.503-4.5008-5.1301-1.6178-10.46-3.1874-15.648-4.6275-12.038-3.3502-24.103-6.2759-36.314-8.9682-6.7424-1.4831-13.607-2.8736-20.396-4.1186-14.181-2.6038-28.538-4.6529-42.842-6.0624-17.804-1.7517-35.635-2.5157-53.508-2.4258z"/></g><g stroke-width="1.3333"><path d="m681.58 2.6172c-10.239.083293-20.48.32577-30.646.9043-2.762.16399-5.5785.36692-8.2129.5918-5.1972.40288-10.339 1.2776-15.455 2.2528-4.9302.92295-9.8114 1.9406-14.634 3.0508-5.8975 1.3648-11.745 2.8637-17.522 4.5387-6.6795 1.93-13.399 4.1207-19.845 6.5405-8.8408 3.2913-17.445 7.2179-25.678 11.828-6.1334 3.3873-12.114 7.0453-17.97 10.891-1.8597 1.2273-3.8683 2.5776-5.7637 3.8833-13.502 9.337-26.489 19.737-38.535 30.999-5.9247 5.533-11.722 11.429-17.174 17.526-3.4278 3.7891-6.8579 7.5762-10.284 11.367-5.8774-1.4131-11.718-2.9856-17.628-4.2581-2.9808-.66045-6.0757-.65943-9.0702-.0851-4.4454.84079-8.9458 1.5956-13.208 3.1596-5.4103 2.1001-10.219 5.4219-15.073 8.544-10.581 7.0561-21.246 13.994-32.092 20.638-19.297 11.866-39.044 23.007-59.28 33.193-21.427 10.852-43.399 20.646-65.901 29.053-32.507 12.186-65.928 21.735-99.488 30.528-15.267 4.0125-30.633 7.7572-45.924 11.594-12.236 3.1254-24.488 6.2178-36.566 9.9159-3.2703 1.0682-6.649 1.994-9.5724 3.8703-8.5508 4.9596-15.95 12.058-20.728 20.756-3.3752 5.9803-5.4212 12.616-6.6601 19.346-.83838 4.0446-1.5914 8.2139-.8891 12.341.09984.71108.20496 1.366.3181 1.9687 1.2257 6.3116 2.446 12.717 5.1294 18.602 2.5347 5.5242 6.7453 10.089 11.33 13.994 2.6319 2.1918 5.5107 4.072 8.4962 5.7435.59289.3238 1.4664.79762 2.1719 1.166 8.6465 4.4175 17.814 7.6901 26.952 10.921 23.331 8.1522 47.169 15.11 71.118 21.158 19.862 5.0118 39.835 9.3949 59.955 13.212 26.315 4.9834 52.813 8.9963 79.488 11.885 16.482 1.7778 33.021 3.1216 49.552 3.8989 9.592.46001 19.187.85472 28.776 1.3882-9.0378 4.4722-18.109 8.8791-27.2 13.24-13.368 6.364-27.197 11.743-41.318 16.186-19.292 6.0875-38.941 10.948-58.596 15.696-21.668 5.1826-43.428 10.059-65.067 15.293-8.1432 1.9654-16.249 3.9221-24.332 6.0182-8.1508 2.1986-16.304 4.627-23.907 8.3486-5.6738 2.7823-11.02 6.6275-14.517 11.981-3.3765 5.0914-5.0984 11.064-6.3118 16.993-.75074 3.515.31559 7.0358 1.2274 10.409 1.5759 5.9294 4.0671 11.846 8.544 16.182 4.842 4.7423 11.2 7.5004 17.509 9.71 8.47 2.8578 17.188 4.9287 25.956 6.6363 2.3289.43784 4.6902.86167 6.9561 1.211 3.23.51392 6.5358.96617 9.7042 1.3312 7.3171.85783 14.799 1.3584 22.084 1.5787 6.0128.1749 12.03.16157 18.043-.002 6.1437-.17536 12.468-.51403 18.668-.98052 8.1726-.61935 16.519-1.4674 24.669-2.4707 22.593-2.785 45.007-6.8598 67.298-11.442 20.254-4.2056 40.404-8.915 60.406-14.19 12.08-3.1718 24.166-6.6651 36.149-10.306 3.6404-1.0922 7.2808-2.1843 10.921-3.2765 1.8254 1.5298 3.6388 3.0742 5.4727 4.5938.27163.21815.84988.66736 1.2601.96039 3.4261 2.4607 7.2148 4.3634 11.078 6.0338.37652.15971 1.1086.46098 1.6213.67487 2.8669 1.1745 5.9427 2.2542 8.7908 3.1865 9.194 2.9535 18.607 5.1669 28.062 7.0996 9.958 2.0135 20.225 3.7122 30.374 5.199 5.1909.80511 10.424 1.3885 15.565 2.4834 1.624.40071 7.1835.36696 7.7665 2.1524.51396 1.6123-4.2496 3.6127-5.4729 4.4876-2.767 1.978-5.6877 3.734-8.5724 5.5336-9.2484 5.4818-18.884 10.273-28.512 15.045-21.658 10.612-43.67 20.484-65.827 30.006-21.159 9.2493-42.056 19.072-62.84 29.203-17.76 8.7093-35.452 17.577-52.775 27.131-8.4126 4.6774-16.685 9.6929-24.862 14.694-44.205 27.175-86.352 58.282-123.27 94.92-24.757 24.516-47.064 51.523-66.263 80.604-3.4463 5.217-6.7341 10.395-9.9842 15.728-7.4756 12.275-14.581 24.962-20.822 37.977-10.736 22.259-19.522 45.438-26.584 69.114-4.0947 13.742-7.6388 27.84-10.529 41.922-3.2706 15.958-5.7888 32.124-7.3833 48.346-1.306 14.34-1.5945 28.652-1.2373 43.044.11231 4.2577.30449 8.6446.56899 12.873.25596 3.9747.58397 7.9449 1.0176 11.904.14993 1.1974.30812 2.6488.49573 3.9404.6398 4.3486 1.2609 8.7599 2.8343 12.888.28948.9092.9469 1.6156 1.3909 2.4301.49094 1.6466-.27782 3.3267-.70921 4.9039-2.3227 6.9339-5.8374 13.38-8.4835 20.186-6.7955 16.81-11.02 34.504-14.914 52.169-4.3026 19.879-7.4772 40.123-9.4482 60.312-1.1868 12.126-1.9496 24.257-2.3219 36.387-.62274 20.46-.11576 40.958 1.3254 61.301 2.3365 32.84 7.0113 65.5 13.56 97.797 2.8705 14.219 6.1313 28.457 9.681 42.513 7.2822 28.81 15.913 57.33 25.715 85.347 5.6117 16.034 11.607 31.885 18.006 47.631 9.3734 23.025 19.647 45.874 30.812 68.217 9.1527 18.392 19.137 36.353 30.258 53.642 7.7683 12.107 16.11 24.016 24.642 35.583 17.022 23.253 35.676 45.195 55.353 66.242 28.217 30.126 58.458 58.388 90.105 84.905 16.024 13.424 32.435 26.339 49.178 38.826 3.9969 3.0042 7.9915 6.0114 11.99 9.0137.40395.6832.55512 1.4655.2793 2.2285-1.3499 3.8854-3.9142 7.2049-5.3508 11.057-1.9228 4.8325-3.2731 10.004-3.1444 15.238.17101 2.8225.90786 5.5738 1.4444 8.3415 2.0108 9.0092 4.3778 17.956 7.4531 26.664 3.6878 9.8563 8.6634 19.172 13.965 28.242 9.5319 16.106 20.435 31.514 31.836 46.405 16.807 21.907 34.927 42.78 53.795 62.93 3.8388 4.1329 7.6776 8.2657 11.516 12.399-25.88 5.5712-51.814 10.863-77.729 16.266-33.033 6.8362-66.061 13.705-99.114 20.44-9.8024 1.984-19.656 3.8825-29.651 4.5636-13.919 1.0043-27.886.9968-41.819 1.7216-5.9225.2889-11.958.6868-17.827 1.4342-7.0162.8761-14.001 2.5218-20.383 5.6344-10.038 4.6951-18.687 11.887-26.347 19.805-5.5617 5.7987-10.593 12.101-15.06 18.779-.44158.6764-1.0535 1.588-1.5423 2.371-3.1682 5.034-6.179 10.215-8.2423 15.814-2.1816 5.7103-3.9704 11.606-5.4697 17.572-.97407 3.8958-1.8042 7.731-2.3356 11.731-.93007 6.5608.28534 13.219 2.1489 19.51 2.5173 8.2723 6.2579 16.107 10.252 23.754 3.7793 7.1628 7.9673 14.308 12.204 21.291 3.5573 5.9897 7.3078 11.894 10.255 18.22 2.6115 5.5123 3.8461 11.536 4.7252 17.535 2.1357 14.544 4.0588 29.124 5.5043 43.755 2.7156 27.378 4.817 54.814 7.3094 82.214 1.147 12.374 2.3704 24.791 3.8384 37.099.6652 5.1238 1.1702 10.287 2.3324 15.329.88083 3.7178 2.1191 7.5777 3.7591 11.138.37299.8009.64635 1.3521 1.0528 2.1469 4.5836 8.8444 11.793 15.947 19.245 22.404 10.68 9.1351 22.129 17.323 33.733 25.234 17.713 12.002 35.952 23.229 54.635 33.657 8.3336 4.6256 16.841 9.1291 25.394 13.21 5.5777 2.6361 11.105 5.1141 16.896 7.1875 6.4034 2.284 13.124 3.5184 19.833 4.4989 5.2309.737 10.698 1.2462 15.981 1.6271 14.52 1.0178 29.023 1.3606 43.585 1.6806 24.437.4641 48.886.8381 73.323.1524 5.1864-.1538 10.516-.366 15.689-.6579 5.7966-.3184 11.613-.7437 17.338-1.2956 12.142-1.1517 24.407-2.9905 36.406-5.5544 5.8768-1.2583 11.899-2.6798 17.766-4.269 8.6678-2.3561 17.318-5.4333 24.644-10.759 6.8305-4.964 13.064-11.156 16.643-18.908 2.927-6.2392 3.6741-13.441 2.143-20.156-1.3285-6.2-4.1307-12.254-8.8579-16.592-5.3049-4.9425-12.325-7.5044-19.297-9.0391-3.3472-.8105-6.7432-1.5269-9.9569-2.7854-.82785-.3116-1.4157-1.0235-1.584-1.8866-.0521-.9165.63749-1.7413 1.1552-2.4726 4.3673-5.7095 9.3215-10.937 13.73-16.614 8.692-11.017 16.392-23.122 22-36.087.52477-1.2062 1.0015-2.3505 1.4615-3.5123 1.443-3.5826 2.7892-7.442 3.9104-11.24 1.1199-3.9728 2.2387-7.9555 3.0451-12.006.54582-2.4919.34288-5.0781-.33325-7.5224-1.4035-5.7741-3.3397-11.631-7.2425-16.234-3.764-4.5226-9.2065-7.2706-14.776-8.8834-4.1152-1.1282-8.3738-2.239-12.677-1.7457-6.2353.7095-12.323 2.3025-18.459 3.5685-9.2078 1.9566-18.453 3.7653-27.766 5.1461-7.5627 1.043-15.218 1.1768-22.842 1.1509-5.7081-.1166-11.45-.2117-17.093-1.1604-1.6243-.3278-3.6137-.7437-4.3021-2.4695-.82926-2.247-.30404-4.6977.0267-6.9934.82757-4.3759 2.0046-8.693 2.4317-13.138.9435-8.0042-.17649-16.218-3.0997-23.72-2.1162-5.4536-5.7563-10.392-10.699-13.593-5.3654-3.5286-11.708-5.2393-18.006-6.1358-4.851-.5541-9.6926.4483-14.465 1.2072-13.063 2.3433-26.056 5.0884-39.178 7.0967-11.43 1.7987-22.975 2.9914-34.556 2.9886-8.316-.012-16.627-.3562-24.94-.5327-1.5302-5.2014-3.3481-10.332-4.3513-15.673-1.0558-4.958-1.6536-9.9958-2.096-15.042-.19596-1.989-.39226-3.9781-.58785-5.9672 4.56-2.0079 9.2133-3.8397 13.534-6.3452.73269-.3998 1.6668-.9593 2.3842-1.3598 6.6777-3.9838 13.216-8.2643 19.162-13.291 2.2378-2.0021 4.4587-4.0231 6.6894-6.0332 9.0664-.4369 18.128-.9837 27.198-1.3359 14.835-.3885 29.677-.1731 44.513.046 32.908.5785 65.805 1.6444 98.682 3.1737 14.969.7353 29.943 1.4854 44.873 2.8047 3.3193.3211 6.6679.5515 9.8972 1.4404 8.7114 2.2005 17.271 4.9645 25.778 7.8426 14.107 4.8796 28.39 9.3585 43.007 12.448 2.3404.4825 4.6976.9192 6.9884 1.2644 3.9701.587 8.0242 1.039 12.017.3811 7.3996-1.0334 14.703-2.6994 21.899-4.694 3.6648-1.0565 7.3649-2.145 10.687-4.0667 5.8502-3.1701 11.554-6.6301 16.977-10.49 11.789-8.5624 22.143-19.04 30.894-30.672 4.2714-5.7121 8.1922-11.849 11.361-18.159 2.2992-4.5238 4.1258-9.2749 5.5428-14.146.59072-1.8908 1.178-3.7828 1.7716-5.6727 5.5524-1.4303 11.142-2.7204 16.664-4.2656 1.516-.4445 3.2385-.979 4.8132-1.5236 2.8559-.971 5.6982-2.1068 8.3958-3.2909.51102-.2391 1.2221-.5453 1.7695-.8052 11.003-5.1293 21.198-11.786 31.272-18.515 5.0964-3.4373 10.276-7.0308 15.326-10.679 10.001-7.2078 19.917-14.897 29.519-22.753 22.573-18.516 44.089-38.232 65.379-58.18 12.237-11.525 24.496-23.04 36.388-34.937 4.8929-4.9144 9.6737-9.8212 14.17-15.103 2.6733-3.244 5.4334-6.5438 7.0688-10.458.7651-1.9186.7328-4.2745 2.4009-5.7353 1.9558-1.721 4.6647-2.05 7.1176-2.5794 7.0516-1.2419 14.14-2.277 21.24-3.2048 26.764-3.4177 53.766-4.7874 80.739-4.6971 32.619.1443 65.26 2.4687 97.483 7.6009 13.128 2.0847 26.098 5.1228 38.812 8.9953 21.243 6.4506 41.98 14.41 62.84 21.978 17.492 6.2884 35.165 12.137 53.131 17.013 6.0073 1.6225 11.929 3.1098 18.036 4.4996 1.5567.3478 3.2068.7246 4.7754 1.0521 6.0036 1.2939 12.191 2.466 18.24 3.4554 11.015 1.8697 22.143 2.9122 33.23 4.2308 3.4402.474 6.9467.7396 10.276 1.7805 1.7306.5095 3.2684 1.8564 3.6076 3.6834.2926 1.5548.4922 3.1421 1.2181 4.5903 2.3566 5.1343 5.5498 9.8371 8.8997 14.368 2.7731 3.6293 5.6336 7.2668 9.2427 10.112 6.2744 5.0599 13.031 9.4981 19.958 13.608 4.2731 2.4682 8.6286 4.9125 13.408 6.2567 6.0568 1.8965 12.251 3.2956 18.453 4.6229 4.2705 1.0036 8.5722 1.9354 12.747 3.2934 4.4007 1.7454 8.4658 4.2158 12.547 6.5902 12.191 7.3043 24.047 15.149 35.899 22.985 30.377 20.208 60.453 40.863 90.526 61.517 28.092 19.321 56.132 38.714 84.193 58.081 1.5889 7.3383 2.8462 14.76 4.9831 21.968 1.078 3.7767 2.3253 7.5135 4.0151 11.065.7804 1.7661 1.5631 3.5313 2.3416 5.2983-5.0876 7.5768-10.047 15.249-15.57 22.521-11.356 15.074-23.722 29.376-36.755 43.018-8.659 9.0494-17.711 17.733-27.312 25.782-10.434 8.8732-21.599 16.854-33.16 24.187-17.67 11.211-35.915 21.474-54.124 31.775-11.014 6.1927-22.013 12.288-32.926 18.629-14.242 8.2568-28.467 16.805-42.116 26.119-9.4736 6.5055-18.727 13.425-26.894 21.543-5.074 4.9953-10.212 10.152-13.554 16.517-1.7851 3.4022-2.879 7.1134-3.6856 10.855-.6081 2.7436-1.2273 5.7395-.8226 8.6279.4709 3.3052 1.3114 6.5542 2.2918 9.7423.998 3.3132 2.9878 6.2277 5.3962 8.6784 2.9252 3.0227 5.9828 6.1941 10.046 7.6275 3.406 1.2145 6.9569 1.9741 10.492 2.7052 3.3929.7534 6.8622.05 10.174-.7541 5.1687-1.2673 10.362-2.6623 15.437-4.053 2.9412-.8343 5.9246-1.5642 8.7664-2.6985 7.0969-2.3097 14.264-4.4007 21.443-6.442 23.544-6.6188 47.688-11.096 72.047-13.288 11.889-1.1121 23.825-1.6123 35.76-1.9086 6.4157-.1125 12.865-.4373 19.255.3093 5.3401.7308 10.452 2.5332 15.547 4.2193 13.729 4.7672 27.056 10.603 40.29 16.586 10.703 4.8622 21.245 10.081 32.084 14.64 1.6002.6738 3.3992 1.4291 5.0295 2.0846 3.2285 1.3262 6.513 2.5325 9.9201 3.3157 3.1619.9156 6.4981 1.18 9.7601.7204 6.2502-.8324 12.342-2.531 18.437-4.0979 20.173-5.3724 40.267-11.228 60.501-16.521 19.695-5.1363 39.491-10.048 59.613-13.21 14.817-2.3289 29.852-3.4086 44.847-2.7555 10.708.4657 21.389 1.5461 31.988 3.1337 10.121 1.5259 20.093 4.0556 29.669 7.6778 6.7841 2.5006 13.353 5.5313 19.962 8.4468 6.3326 2.6737 12.725 5.2519 19.315 7.2251 4.0225 1.0312 8.1637 2.3687 12.362 1.681 6.3498-1.051 12.81-2.8984 17.919-6.9779 4.6064-3.6244 7.5764-8.9535 9.1458-14.532.5868-2.0015.9914-4.0575 1.36-6.0301.6175-3.0909.6022-6.2847-.021-9.3732-1.1415-5.9184-2.6437-11.767-4.4417-17.519-.5543-1.7486-1.1849-3.6916-1.795-5.5059-5.1938-15.203-11.399-30.083-17.83-44.77-11.724-26.594-24.482-52.691-37.848-78.506-14.348-27.616-29.373-54.859-45.507-81.484-6.185-10.195-12.569-20.293-19.185-30.17-4.4806-6.8153-9.1522-13.523-13.137-20.647-2.1616-3.8456-3.6789-8.0219-4.661-12.317-1.4774-6.5949-3.4139-13.136-6.0537-19.384-5.5666-13.386-14.025-25.461-24.192-35.754-4.548-4.7066-9.5872-8.957-15.162-12.402-8.6673-5.3898-17.949-9.6775-27.03-14.306-1.5648-.81-3.1837-1.5465-4.7155-2.4012-35.075-36.332-70.099-72.715-105.28-108.94-15.083-15.474-30.123-30.996-45.618-46.06-10.544-10.219-21.321-20.106-32.252-29.855-4.6574-4.1378-9.3306-8.254-14.172-12.258-3.5079-2.9874-7.2029-5.8183-10.21-9.3339-3.1967-3.7358-4.3406-8.629-5.9703-13.146-1.0169-2.8679-2.2073-5.7164-3.4877-8.3919-4.3887-9.2361-10.503-17.626-16.997-25.41-3.6061-4.3092-7.2106-8.6198-10.818-12.928 11.97-.5033 23.946-.8669 35.91-1.5 20.438-1.149 40.858-3.2842 61.175-6.3715 16.133-2.4572 32.247-5.5212 48.139-9.2556 17.813-4.1892 35.686-9.2812 52.927-15.533 12.801-4.6175 25.311-10.042 37.401-16.291 16.788-8.5976 33.064-18.173 48.945-28.341 12.197-7.845 24.278-16.103 35.751-25.06 4.6835-3.6631 9.2936-7.4768 13.598-11.641 3.0073-2.9201 5.8759-6.078 7.7511-9.8653.9095-1.7401 1.7897-3.7303 2.4219-5.4472.2653-.7326.4324-1.1916.6681-1.9315.8676-2.8987 1.5627-5.8717 1.8374-8.8893.1863-2.1662-.2578-4.5117-.7165-6.4937-.6809-3.1221-1.8086-6.182-1.957-9.3965-.1047-1.8815.8774-3.7996 2.6074-4.623 2.5153-1.2086 5.3709-1.2981 8.0889-1.6925 1.7302-.2133 3.498-.4779 5.1217-.7701 7.944-1.4003 16.003-3.2065 23.922-5.1014 4.768-1.1529 9.5262-2.3661 14.188-3.7191 5.9078-1.7379 11.629-4.0403 17.378-6.2352 13.718-5.3632 27.282-11.122 40.676-17.248 12.163-5.6514 24.248-11.606 35.444-19.029 7.3825-4.9704 14.526-10.665 19.55-18.111 3.7581-5.5273 5.8613-12.101 6.2319-18.761.1664-2.404.1076-5.0321.02-7.302-.049-1.0021-.1095-1.9213-.2165-2.9801-.4306-4.8561-1.8933-9.6428-4.5259-13.766-.9759-1.6048-2.0222-2.9907-3.1563-4.5169-1.3567-1.9034-2.8207-3.8211-3.5575-6.0645-.4267-1.2022.1951-2.6719 1.4643-3.0214 6.4213-2.3287 13.101-3.8937 19.445-6.4509 14.52-5.6668 28.095-13.529 40.881-22.395 6.4091-4.4631 12.688-9.2902 18.618-14.274 4.6164-3.8871 9.1289-7.9751 13.406-12.145 8.3781-8.2244 16.227-17.051 22.801-26.799.4568-.6946 1.0848-1.6258 1.5829-2.4306 4.7479-7.4281 8.568-15.58 10.163-24.298 1.66-8.769 1.0316-18.2-3.0495-26.245-.8998-1.7934-1.972-3.4978-3.1789-5.1001-.2178-.271-.7188-.923-1.0654-1.3237-3.776-4.4733-8.7539-7.8805-14.234-9.9153-4.11-1.6285-8.3683-3.0378-12.552-4.2805-2.3538-.6847-4.9725-1.3629-7.463-2.0336-4.0631-1.0871-8.1262-2.1743-12.189-3.2614 5.5294-5.9536 11.191-11.787 16.59-17.86 10.468-11.971 19.795-25.014 27.092-39.164.7543-1.4636 1.5694-3.1497 2.2122-4.5127 3.47-7.53 6.446-15.419 7.4751-23.691 1.0957-8.869-1.1547-18.244-6.7495-25.29-3.3506-4.1692-7.5649-7.8262-12.628-9.7212-5.4017-2.045-11.187-2.7447-16.895-3.3602-1.4692-.1413-3.2647-.2974-4.7558-.4179-8.2796-.623-16.541-.9339-24.859-1.2262-16.774-.58-33.653-.6836-50.478-.8528-44.399-.3567-88.799-.424-133.2-.4495-93.864-.022-187.73.2829-281.59.8414-65.258.3928-130.52 1.0019-195.77 1.3204-20.024.088-44.012 1.0947-64.036 1.0227-1.6848-.019-3.3738.01-5.0473-.2239-.1541-.8605-.7591-1.7187-.347-2.5829.5644-1.3043 1.8405-2.1337 2.8549-3.0812 6.3986-5.4064 17.249-11.066 23.839-16.231 9.676-7.4477 19.235-15.145 28.6-22.92 33.368-27.772 65.228-57.323 95.994-87.943 33.982-33.896 66.622-69.145 97.634-105.8 17.319-20.505 34.146-41.436 50.164-62.977 12.381-16.77 24.32-33.869 35.774-51.285 4.9125-7.5612 9.8586-15.119 14.174-23.043 1.8676-3.458 3.6182-6.9986 5.8289-10.255.3625-.4912.9431-.8654 1.497-1.0375 3.9829.7566 7.8963 1.8432 11.836 2.7949 5.146 1.3503 10.452 2.4039 15.799 2.7227 2.5324.183 4.9082.2749 7.4493.3395 10.678.2255 21.364.2121 32.04-.1282 6.0931-.2148 12.459-.471 18.551-.964.9384-.072 1.9528-.1664 2.8101-.2508 9.9438-1.1482 19.791-2.6548 29.678-4.2871 14.142-2.383 28.361-5.0845 42.346-8.2676 4.7952-1.1035 9.4348-2.2284 14.191-3.5567 3.3712-1.0082 6.828-1.8912 9.9615-3.5292 4.4084-2.582 7.8496-6.5655 10.494-10.885 1.7594-2.9149 3.0837-6.173 3.5175-9.5274.4058-1.7123.6691-3.5842 1.7969-4.998.5854-.6509 1.5143-.8799 2.3462-.6262 7.562 1.6298 14.975 3.8432 22.54 5.4406 4.1244.8496 8.3227 1.2882 12.527 1.461 1.0222.039 2.3153.089 3.4422.1081 8.9811.1344 17.979.1805 26.943-.4812 1.2936-.1058 2.7231-.2279 4.0122-.3671 4.0015-.4191 7.9395-1.0178 11.93-1.7468 2.7339-.5021 5.3582-1.0494 8.1259-1.6493 5.8406-1.2775 11.648-2.7006 17.448-4.1508 17.956-4.545 35.73-10.462 52.889-17.598 9.4593-3.9756 18.783-8.3135 27.703-13.396 4.9903-2.8814 10.03-6.0355 14.451-9.8392 2.4582-2.1027 4.6901-4.5579 6.0183-7.5419 2.4122-5.0066 4.0886-10.391 4.7531-15.914.3643-4.2913-.984-8.4645-1.9243-12.599-.9858-3.9339-1.9929-7.7297-3.2412-11.605-.3779-1.3476-.9771-2.609-1.5548-3.8754-.5845-1.2863-.01-3.0371 1.4166-3.4435 1.6621-.4864 3.3881.1718 5.0417.4128 9.7767 1.9386 19.941 3.0377 29.994 2.8208 2.2901-.043 4.4065-.1394 6.694-.3004 2.3434-.1551 4.8632-.4089 7.2851-.6967 1.1766-.1534 2.6071-.3344 3.8761-.5266 7.9715-1.172 16.009-2.9646 23.87-5.0554 14.687-3.9301 28.818-9.9896 41.671-18.125 18.755-11.807 34.775-27.413 49.383-43.957 8.1117-9.2199 15.793-18.743 23.243-28.484 1.8006-2.9076 2.9242-6.176 3.9898-9.4089.8466-3.0713 1.8939-6.1481 2.0118-9.3576-.03-3.1838-.969-6.265-1.7391-9.3284-2.5371-8.5777-7.5735-16.229-13.554-22.801-3.5484-3.8476-7.5326-7.2567-11.31-10.872-.7431-.69427-1.4861-1.3885-2.2291-2.0828 6.1648-1.2111 12.381-2.1833 18.492-3.6538 10.927-2.6224 21.383-7.0703 30.968-12.921 6.34-3.8414 12.428-8.284 18.158-12.87 13.179-10.503 24.516-23.122 34.792-36.429 8.6673-11.288 16.563-23.196 23.749-35.522 5.1288-8.79 9.8915-17.808 14.285-27.043 2.798-5.8948 5.4462-11.869 7.9131-17.948 3.064-7.4963 5.8725-15.322 8.3422-23.043 1.7815-5.6591 3.6799-11.336 4.4615-17.239.3378-2.6184.2995-5.2803-.077-7.8925-.06-.41586-.1815-1.2006-.288-1.7569-.9566-5.8794-3.5401-11.497-7.5283-15.937-2.276-2.5996-5.1039-4.92-7.8751-6.7728-3.9074-2.5749-8.2976-4.285-12.599-6.0743-10.208-4.049-20.653-7.5181-31.268-10.338-3.0801-.83966-6.271-1.4712-9.1295-2.9408-.8808-.4735-1.3798-1.4965-1.2608-2.459.7078-1.561 2.28-2.4385 3.5243-3.5281 4.7285-3.7581 9.8183-7.045 14.396-10.996 9.5549-8.0565 18.489-16.824 27.126-25.849 6.5389-6.9224 12.975-13.978 18.67-21.621 4.3644-6.1085 8.283-12.533 11.86-19.132 4.083-7.5978 7.5784-15.512 10.414-23.658.4157-1.205.9045-2.6457 1.3194-3.9504 2.8491-8.8657 4.9437-17.961 6.5165-27.136.2514-1.5422.5417-3.3069.7687-4.9404.6158-4.3368 1.0499-8.7006 1.245-13.077.017-.44611.04-1.2666.059-1.8561.1177-5.0182-.1148-10.06-.9633-15.013-.091-.47618-.1833-1.0343-.2997-1.5789-.3164-1.5409-.6437-2.8813-1.1024-4.4027-.4002-1.348-.954-2.8755-1.4455-4.0476-2.3283-5.579-6.1498-10.675-11.333-13.881-4.4381-2.4754-9.4329-3.6957-14.351-4.8169-10.401-2.2247-21.016-3.4447-31.55-4.5466-18.65-1.8671-37.318-3.0628-56.041-4.1644-37.97-2.1365-76.02-3.6931-114.05-4.9682-27.777-.89754-55.579-1.6669-83.385-1.9746-27.941-.19412-55.883-.29629-83.824-.47867-41.82-.23633-83.64-.57657-125.46-.38471-53.816.20095-107.65 1.099-161.43 2.7877-39.158 1.2418-78.305 2.8465-117.43 4.8234-20.94 1.0923-41.9 2.447-62.831 3.9012-14.71 1.0382-29.527 2.1551-44.227 3.3384-19.455 1.6051-38.887 3.2565-58.263 5.4154-5.9049.7128-11.838 1.313-17.67 2.509-2.7253.61423-5.4506 1.2287-8.176 1.8428-4.5084-4.8084-8.7562-9.9178-13.953-14.019-5.7055-4.6081-12.271-8.0603-19.137-10.592-.4002-.13858-1.2835-.46093-1.7021-.61027-6.2853-2.1834-12.761-3.7676-19.274-5.1007-3.7876-.76739-7.7918-1.4408-11.71-1.8547-1.7596-.19182-3.6243-.34209-5.2803-.42572-1.1006-.0627-2.0927-.0996-3.2458-.12459-4.8029-.11111-9.7628.17618-14.438.70383-10.082 1.1573-20.024 3.3845-29.826 5.8102-10.367 2.587-20.471 6.1156-30.444 9.9281-1.512.59222-3.2517 1.2624-4.7683 1.8753-18.925 7.6036-37.389 16.358-55.261 26.183-11.088 6.1494-22.008 12.67-32.201 20.232-4.3359 3.3592-8.5028 6.9314-12.746 10.406-28.194 23.402-56.297 46.919-84.403 70.418-114.47 95.765-228.71 191.79-343.02 287.74-32.248 27.073-64.498 54.144-96.744 81.219-21.491 8.2832-42.962 16.62-64.596 24.524-23.366 8.5495-46.835 16.845-70.555 24.364-10.491 3.3102-21.046 6.4464-31.764 8.9414-3.4105.77146-6.8088 1.7785-10.319 1.9462-1.8366.0982-4.9017 1.5458-5.6867-.23722-.9952-2.2616.37037-6.9998.29342-9.401-.0662-4.1508.45882-8.3376 1.9274-12.238 1.9086-5.1811 4.3638-10.144 6.9018-15.04 5.0945-9.7246 11.544-18.702 18.88-26.857 6.3388-7.0418 13.006-13.857 20.604-19.554 9.1211-6.8744 18.887-12.827 28.586-18.836 15.648-9.6025 31.459-18.941 46.99-28.735 28.212-17.715 55.96-36.383 81.24-58.15 13.76-11.815 26.801-24.453 39.27-37.619 19.652-20.87 37.239-43.582 52.476-67.873 7.6611-12.215 14.742-24.859 21.145-37.75 7.3102-14.701 13.786-29.833 19.385-45.154 5.6113-15.405 10.433-31.229 14.642-47.158 3.6839-13.94 6.9081-28.169 9.6616-42.329 3.4557-17.825 6.2092-35.787 8.1942-53.835 1.1289-10.329 2.013-20.804 2.5834-31.224.2567-4.7938.4639-9.7261.5774-14.527.1932-7.614.1852-15.338-.04-22.886-.1362-4.0791-.3236-8.1957-.6054-12.201-.291-4.3033-.6832-8.6471-1.1777-12.863-.8953-7.9457-2.3123-15.825-4.1377-23.609-4.0269-17.874-9.2195-35.616-15.773-52.785-5.2767-13.901-11.436-27.589-17.943-40.858-13.498-27.415-29.064-53.787-46.077-79.161-15.259-22.687-31.704-44.604-49.683-65.214-10.768-12.272-22.264-24.284-35.656-33.823-12.265-8.837-26.025-15.326-40.031-20.883-15.277-6.0621-31.182-10.986-47.125-15.239-13.997-3.7188-28.025-6.8903-42.255-9.6723-16.242-3.1669-32.695-5.8015-49.159-7.8652-1.9563-.24142-3.9114-.49289-5.8719-.69788-.75834-.071236-1.8894-.18553-2.6799-.24895-6.1007-.52072-12.401-.81067-18.547-1.0101-9.1256-.29275-18.257-.36969-27.387-.31519zm1401.6 403.71c37.125-.0419 74.25 1.6987 111.21 5.1202 26.845 2.5354 53.637 5.8976 80.13 10.97 14.466 2.8235 28.887 6.0841 42.87 10.79 7.3031 2.5424 14.612 5.3695 21.071 9.692 3.3795 2.3484 6.7308 5.2774 8.0157 9.3242.083.82704 1.0414 1.0748 1.5592 1.6141 4.8205 3.8637 9.6363 7.9456 13.06 13.152 1.9383 2.9965 3.296 6.7042 2.3652 10.284-1.1815 4.9217-3.1299 9.6164-5.0093 14.303-5.1411 12.401-10.953 24.524-17.319 36.343-18.654 34.422-42.088 66.204-69.113 94.514-37.155 38.992-80.869 71.368-127.63 97.916-47.204 26.803-97.506 47.862-149.02 64.809-34.22 11.215-69.096 20.368-104.28 28.015-39.276 8.5008-78.962 15.148-118.9 19.582-12.977 1.4502-25.986 2.5875-39.008 3.5462-1.9989.1684-4.1009.3597-6.0017.58851 9.3916 14.79 19.111 29.369 28.59 44.103 21.627 33.499 42.837 67.277 63.15 101.59 13.895 23.536 27.442 47.295 39.868 71.646 6.6517 13.138 13.068 26.428 18.297 40.206 2.3911 6.5023 4.6646 13.124 5.5954 20.016.3983 2.8867.2967 5.8388-.42 8.6686-1.7437 7.392-4.9379 14.34-8.2952 21.118-7.0399 13.913-15.385 27.118-24.015 40.086-16.619 24.75-34.658 48.516-53.28 71.786-19.364 24.125-39.437 47.68-60.111 70.692-14.816 16.255-30.169 32.007-45.609 47.668-17.924 18.127-36.042 36.064-54.513 53.632-8.61 8.187-17.357 16.23-26.339 24.008-29.725 25.956-60.469 50.816-92.886 73.353-25.453 17.652-51.958 33.917-79.963 47.216-20.035 9.4831-40.871 17.447-62.459 22.586-8.7271 2.0913-17.669 3.2023-26.631 3.5408-5.258.1505-10.539.6034-15.789.075-4.9403-.5625-9.469-2.7694-14.021-4.622-11.549-4.9928-22.506-11.238-33.26-17.739-20.074-12.26-39.346-25.79-58.193-39.85-27.091-20.291-53.273-41.803-78.362-64.525-16.937-15.359-33.255-31.397-49.022-47.954-19.843-20.939-38.759-42.848-55.339-66.486-11.654-16.709-22.192-34.314-29.996-53.17-7.1647-17.339-11.956-35.955-11.625-54.822.1477-8.2518 1.3611-16.458 3.1558-24.504 2.4291-10.732 6.6157-21.096 12.65-30.314 8.2917-12.749 19.466-23.3 31.162-32.889 7.8435-6.3934 15.996-12.394 23.939-18.662 16.121-12.605 32.116-25.507 46.241-40.367 4.6605-4.8758 9.1351-9.9261 13.498-15.069 12.077-14.323 23.483-29.404 34.974-44.275 44.992-58.305 90.743-116.02 136.81-173.48 68.254-85.091 137.3-169.55 206.81-253.61 6.8136-8.2492 13.627-16.499 20.441-24.748 14.729-.67479 29.439-1.2122 44.125-2.2123 10.234-.67758 20.463-1.5165 30.709-2.5006 14.452-1.4095 28.975-3.1267 43.352-5.1914 24.835-3.554 49.534-8.1213 73.93-13.988 24.059-5.828 47.982-12.907 71.025-22.118 15.163-6.0942 30.158-13.165 44.046-21.946 4.9024-3.1044 9.8738-6.5896 14.561-10.204 4.4714-3.4597 8.8159-7.1234 12.919-10.934 12.504-11.63 23.556-25.016 31.468-40.204 1.6489-3.2251 3.2173-6.5146 4.4744-9.9071.3864-5.6574 3.369-10.842 7.3497-14.763 5.5476-5.4826 12.571-9.1668 19.693-12.179 11.006-4.5488 22.602-7.4858 34.25-9.8494 19.152-3.8118 38.6-5.9355 58.063-7.3575 20.294-1.4598 40.646-2.0536 60.99-2.1036zm-1955.3 657.23c2.1564.166 3.5535 2.0806 4.7285 3.6879 3.2893 4.8732 5.8248 10.198 8.4815 15.429 9.0195 18.38 17.46 37.035 26.048 55.619 16.35 35.502 32.847 70.942 50.114 106.01 14.796 30.047 30.256 59.689 47.104 88.624 11.42 19.662 23.359 39.034 36.2 57.805 3.4562 5.0446 7.0932 10.226 10.678 15.17 11.771 16.204 24.244 31.94 38.022 46.494 5.5083 5.797 11.375 11.541 17.406 16.761 7.5784 6.6365 15.819 12.501 24.534 17.551 13.123 7.6386 26.895 14.081 40.701 20.371 22.95 10.365 46.137 20.06 69.379 29.73 33.897 14.058 67.924 27.8 101.79 41.937 47.856 19.934 95.543 40.291 142.72 61.798 38.034 17.329 75.692 35.493 112.78 54.76 26.362 13.708 52.463 27.921 78.293 42.606 54.969 31.367 108.15 65.821 159.68 102.55 56.629 40.403 111.27 83.588 163.77 129.22 42.56 36.994 83.692 75.633 123.18 115.89 19.915 20.241 39.625 40.712 58.158 62.237 12.759 14.848 25.321 29.885 37.017 45.591 5.7374 7.7883 11.379 15.691 16.049 24.178 1.9255 3.5845 3.7137 7.3304 4.3313 11.391.3347 1.6755.6696 3.3509 1.0048 5.0263-5.4923-.042-10.995.1626-16.475-.3176-12.427-1.0026-24.794-2.6673-37.102-4.6363-11.591-1.8371-23.064-4.3894-34.356-7.582-21.702-6.1085-42.855-13.963-63.982-21.781-15.145-5.5401-30.384-10.842-45.833-15.478-9.9213-2.9673-20.08-5.6932-30.244-7.97-2.9116-.6581-5.7544-1.265-8.6423-1.8436-15.956-3.2358-32.184-5.4068-48.336-6.9911-8.2932-.7711-16.56-1.566-24.816-1.9242-16.579-.7113-33.25-.8267-49.879-.6962-9.2938.086-18.593.2701-27.842.6848-8.2866.3594-16.647 1.2236-24.942 2.0913-9.926 1.0704-19.826 2.383-29.693 3.9048-18.502 2.8782-37.018 6.5788-55.248 11.087-6.0725 1.509-12.084 3.0826-18.14 4.7756-20.037 5.593-39.921 12.212-59.351 19.794-9.8886 3.8923-19.648 8.1133-29.273 12.618 37.159-6.941 74.211-14.855 111.42-21.74 1.8952-.2833 3.7796-.7837 5.6956-.8493.5414.1562 1.5212-.227 1.5321.5822.1833.7099.558 1.4158.2211 2.1379-.7556 1.5155-2.1108 2.6281-3.2112 3.8901-8.5031 8.8056-17.311 17.311-26.092 25.838-13.682 13.194-27.419 26.335-41.496 39.108-20.807 18.743-42.024 37.07-64.309 54.045-12.749 9.6249-25.818 18.902-39.77 26.717-8.9303 4.9333-18.296 9.3806-28.352 11.432-4.2274.911-8.8182 1.3036-12.885-.4711-4.5406-1.939-7.9592-5.6877-11.106-9.3678-6.5872-7.891-12.09-16.608-18.54-24.606-8.5571-10.808-18.371-20.864-29.629-28.951-14.632-10.607-31.384-17.832-48.393-23.688-6.5943-2.2675-13.208-4.3613-19.923-6.3282-9.8066-2.8604-19.889-5.4088-29.868-7.591-18.171-3.9855-36.678-7.0035-55.108-9.6283-12.855-1.8463-25.711-3.4058-38.593-5.0442-4.7536-.6862-9.5857-1.2221-14.144-2.8101-3.6023-1.2656-6.6929-3.5993-9.4919-6.1424-8.4857-7.5658-16.6-15.535-24.659-23.551-22.658-22.744-44.21-46.631-63.909-71.993-12.185-15.761-23.718-32.08-33.585-49.405-5.7256-10.205-11.001-20.762-14.411-31.99-1.3058-4.529-2.4446-9.1563-2.7133-13.877-.0463-1.5262-.0525-3.4588 1.3665-4.3991.94301-.7122 2.1319-.2897 3.1254.08 5.1429 1.8208 10.191 3.9621 15.266 5.7913 16.28 5.9838 32.751 11.44 49.314 16.583 20.025 6.1388 40.119 12.016 60.267 17.693 1.4461.4073 2.8933.8109 4.3422 1.2083-10.411-6.0743-20.936-11.949-31.285-18.132-42.041-24.953-82.682-52.271-121.61-81.847-26.417-20.081-52.053-41.199-76.685-63.436-13.645-12.492-26.771-25.54-39.743-38.726-12.356-12.64-24.58-25.418-36.279-38.672-6.3426-7.2509-12.403-14.743-18.428-22.258-15.955-19.968-30.907-40.773-44.067-62.698-16.61-27.537-30.45-56.635-43.292-86.084-25.625-59.046-46.18-120.42-59.441-183.44-11.046-52.68-16.993-106.58-15.544-160.44.93151-33.787 4.7815-67.544 12.357-100.5 2.8604-12.393 6.7219-24.551 11.521-36.33 6.6439-16.386 14.519-32.234 22.433-48.033 9.6416-19.024 19.272-38.087 30.352-56.326 3.706-5.9602 7.4534-11.948 12.074-17.254 1.7295-1.85 3.5691-3.8962 6.1043-4.5735.37992-.074.76706-.1276 1.1543-.094z" fill="#7a7a87"/><path d="m1837.3 2802.8c-4.7667-1.2845-19.467-7.4512-32.667-13.704-31.297-14.824-52.919-23.393-65.689-26.031-9.0042-1.8604-13.521-1.9334-35.644-.5766-41.585 2.5502-66.184 6.9049-106.67 18.883-38.083 11.268-37.992 11.25-46.282 9.3206-13.733-3.1968-22.208-11.335-25.04-24.043-3.3844-15.189 3.7854-31.247 20.406-45.704 19.776-17.201 35.91-27.602 88.628-57.136 76.923-43.094 90.867-52.892 124.32-87.357 19.17-19.749 39.324-44.309 47.642-58.058l4.3426-7.1787-3.1974-7.9196c-1.7586-4.3558-3.8864-11.52-4.7286-15.92-.8421-4.4-1.7946-9.2535-2.1168-10.786-.344-1.6354-4.5882-5.4432-10.281-9.2232-5.3323-3.5408-33.01-22.582-61.506-42.314-91.694-63.493-149.02-101.01-154.35-101.01-6.3792 0-27.771-5.883-36.508-10.04-20.414-9.7126-38.663-27.539-44.226-43.201l-2.2792-6.4173-10.748-.8797c-41.352-3.3844-81.606-13.241-134.52-32.938-66.363-24.703-89.721-30.135-148.89-34.626-29.73-2.2567-93.427-.8604-119.33 2.6157-35.696 4.7899-32.484 3.9459-33.85 8.894-2.0625 7.4699-8.4449 15.201-29.668 35.939-61.096 59.698-113.37 103.57-151.81 127.41-14.987 9.295-25.331 13.879-39.134 17.341-10.843 2.7196-11.427 3.0545-12.285 7.0436-1.669 7.761-8.3876 20.839-16.379 31.882-23.675 32.715-55.9 51.672-87.758 51.624-13.082-.02-30.113-4.1637-57.264-13.934-14.832-5.3373-23.621-7.6996-32.132-8.6373-29.829-3.2863-97.131-5.8812-155.05-5.9781l-60.667-.1014-12 9.2183c-6.6 5.07-16.331 11.278-21.624 13.794l-9.6237 4.576.70942 6.2057c1.3793 12.066 4.7451 25.556 6.9185 27.729 1.9287 1.9285 4.6316 2.0959 21.837 1.3512 21.856-.946 36.135-2.8557 66.033-8.8313l20.251-4.0475 9.717 2.3321c8.5204 2.045 10.545 3.1599 16.439 9.0543 5.963 5.9631 6.9851 7.8459 9.0494 16.67 2.8571 12.213 2.8368 13.935-.3224 27.267-1.3883 5.8588-2.2606 10.916-1.9384 11.238.32224.3222 5.5286.9805 11.57 1.4628 15.19 1.2126 34.955-.6379 57.219-5.3571 20.833-4.4161 24.996-4.7153 34.175-2.4565 11.677 2.8738 19.838 11.657 22.845 24.588 1.3543 5.8245 1.2157 8.205-.97 16.667-3.4152 13.222-9.9833 28.622-16.561 38.832-6.5584 10.18-20.789 28.507-25.594 32.962l-3.5108 3.2551 11.959 2.8707c17.834 4.2805 26.769 12.268 29.624 26.483 3.7342 18.594-6.2464 35.023-27.965 46.034-6.882 3.4889-30.877 9.8627-47.57 12.636-25.769 4.2812-44.392 5.328-94.667 5.3216-58.257-.013-90.037-1.9443-108.46-6.6096-31.783-8.0497-119.9-62.224-145.71-89.574-16.389-17.373-17.65-22.468-23.85-96.338-6.9484-82.794-11.33-118.88-15.41-126.92-1.2315-2.4265-7.0112-12.377-12.844-22.112-13.357-22.294-18.851-34.241-21.702-47.192-2.1144-9.6045-2.1136-10.9.0127-21.333 1.245-6.1095 3.8177-15.303 5.717-20.43 7.5142-20.284 29.257-46.737 46.806-56.945 14.7-8.5508 27.887-10.936 61.433-11.114l28.667-.1519 52.667-10.808c100.81-20.687 144.67-30.015 145.76-30.994.60132-.5418-4.741-7.2131-11.872-14.825-38.937-41.564-74.601-89.36-89.828-120.38-7.108-14.482-14.727-40.376-14.727-50.053 0-6.6387 2.9908-16.241 6.6664-21.403l2.9855-4.1928-3.1593-2.1997c-15.748-10.964-50.127-38.32-76.493-60.864-24.628-21.059-77.687-74.147-96.69-96.744-26.12-31.059-52.296-67.669-69.968-97.856-9.2888-15.867-29.383-57.098-40.359-82.81-25.398-59.499-43.134-114.27-56.854-175.57-22.064-98.581-24.925-185.47-8.7322-265.23 6.01-29.606 12.424-51.421 19.983-67.968 5.5037-12.047 6.5839-15.531 5.5108-17.774-4.6981-9.8194-7.1677-42.37-5.4916-72.381 2.6248-46.996 14.671-101 32.213-144.41 34.008-84.158 92.394-157.63 173.72-218.61 57.519-43.13 114.9-74.851 210-116.09 45.587-19.767 69.229-31.252 87.136-42.329l12.157-7.5198-20.646-3.025c-25.186-3.6901-50.92-9.0511-62.956-13.115-7.9182-2.6734-11.839-4.6982-24.289-12.543-2.7151-1.7107-4.8398-1.355-21.54 3.6066-53.712 15.958-118.1 29.426-163.92 34.289-21.262 2.2563-64.777 2.5943-78.603.6106-12.863-1.8457-37.48-7.8198-44.362-10.766-8.1294-3.4804-18.4-14.196-20.465-21.351-5.5083-19.085 2.3054-36.209 20.564-45.069 11.239-5.4533 22.808-8.6024 80.959-22.038 54.343-12.556 87.154-21.2 104.31-27.479 12.184-4.4596 47.975-21.368 47.095-22.248-.30747-.30747-11.256-1.101-24.33-1.7634-29.369-1.4879-58.324-4.3684-87.104-8.665-81.142-12.114-186.81-41.924-207.13-58.433-9.0858-7.3833-14.587-16.828-17.409-29.891-2.2321-10.331-2.2185-10.871.56996-22.749 2.2781-9.7036 4.01-13.734 8.5551-19.908 13.117-17.819 18.913-20.444 75.41-34.164 83.5-20.277 130.65-35.428 179.17-57.575 30.987-14.144 74.557-38.941 109.49-62.317 13.17-8.8114 17.769-11.135 26-13.135 9.4396-2.2935 10.523-2.3064 19.333-.23102 5.1333 1.2092 10.16 2.6351 11.17 3.1686 1.2566.66346 4.67-2.2448 10.801-9.2031 32.195-36.536 79.339-68.79 118.69-81.207 32.096-10.126 58.288-13.836 97.333-13.788 38.948.048239 75.205 4.1363 114.95 12.96 53.161 11.804 89.977 25.334 114.8 42.188 23.502 15.96 59.665 58.521 93.229 109.72 46.941 71.608 73.488 137.36 79.775 197.59 2.5536 24.465-1.2067 80.988-8.1877 123.07-22.617 136.34-81.989 236.41-187.23 315.56-17.612 13.245-48.732 33.567-83.333 54.415-17.967 10.826-36.993 22.669-42.281 26.319-26.112 18.022-50.488 53.513-52.085 75.833l-.67254 9.3997 5.186-.89689c23.71-4.1005 86.855-25.233 161.68-54.109l15.162-5.8512 262.84-220.6c144.56-121.33 267.8-224.35 273.85-228.93 12.428-9.3974 28.611-18.757 55.758-32.248 25.558-12.702 46.892-20.976 68.365-26.512 15.228-3.9262 21.236-4.7979 36.86-5.3484 16.864-.5942 20.051-.32347 33.005 2.8035 19.753 4.7682 32.174 11.422 43.026 23.048l5.3648 5.7471 9.9686-1.9483c20.689-4.0437 125.05-12.078 207.3-15.96 111.56-5.2648 276.97-8.189 366-6.4701 31.167.60173 59.367 1.0054 62.667.89699 25.186-.82728 163.8 3.3894 227.33 6.9156 66.112 3.6693 93.43 7.1788 104.21 13.388 12.344 7.1111 16.782 17.798 16.648 40.086-.1885 31.466-10.432 62.858-29.958 91.807-9.7155 14.404-40.499 45.639-56.429 57.256l-10.864 7.923 19.742 5.6627c35.831 10.278 48.115 19.237 51.861 37.825 1.304 6.4706 1.0931 8.7639-1.7925 19.493-6.1766 22.964-20.095 54.558-35.225 79.959-19.488 32.719-45.791 62.021-70.19 78.195-16.169 10.719-21.702 13.168-38.528 17.056l-13.02 3.0086 7.8621 8.1442c11.395 11.804 14.57 16.692 17.046 26.246 1.8723 7.2252 1.9608 9.6758.5839 16.164-1.7211 8.1096-2.7283 9.7836-15.191 25.248-24.223 30.057-37.764 43.392-58.432 57.542-31.135 21.317-74.193 31.49-110.99 26.222-5.1333-.7349-10.28-1.6307-11.437-1.9906-1.7644-.5488-1.5828.8994 1.1249 8.973 6.8268 20.355 4.9778 33.928-6.114 44.882-18.626 18.394-86.502 43.752-132.66 49.562-22.334 2.8112-54.72.051-70.336-5.9947-1.6338-.6325-2.4408.6976-3.6797 6.0646-1.7872 7.7427-7.4713 15.717-14.142 19.84-4.7423 2.9309-35.145 10.241-60.752 14.607-26.068 4.4449-54.394 7.0402-76.667 7.0243-17.867-.013-23.561-.5397-35.044-3.2426l-13.71-3.2272-4.9473 9.4455c-6.9495 13.268-33.169 52.398-51.001 76.112-44.857 59.655-86.98 107.78-145.92 166.71-50.379 50.372-89.964 85.316-134.69 118.9l-18.645 14.001 54.645-.8977c100.62-1.6529 517.59-3.0075 609.98-1.9815 99.979 1.1103 108.86 1.7784 118.42 8.9096 6.8605 5.1151 11.686 12.789 13.542 21.534 1.4681 6.9182 1.3873 9.2948-.6029 17.739-4.3804 18.586-17.471 40.424-39.813 66.419-6.5006 7.5635-9.7003 12.248-8.6132 12.61.951.3166 6.8293 1.8867 13.063 3.4891 22.302 5.7331 32.709 14.417 36.676 30.602 2.1038 8.5848 2.118 10.017.1839 18.581-1.1527 5.1037-3.5637 12.153-5.3581 15.664-19.04 37.262-75.598 81.694-117.59 92.378l-6.7548 1.7187 5.5383 8.259c14.808 22.082 8.8024 45.926-16.024 63.626-16.068 11.456-63.409 33.911-91.328 43.32-11.818 3.9823-41.212 10.55-53.028 11.848-5.9332.6517-7.9946 1.3496-7.1182 2.4097.6786.8208 1.9684 5.0924 2.8661 9.4924 2.256 11.057.1643 20.551-6.4661 29.348-15.684 20.81-89.811 67.797-135.74 86.043-43.77 17.387-114.87 30.844-174.76 33.075-13.332.4968-24.67 1.3328-25.195 1.8579-.5251.5252 1.4008 3.5171 4.2797 6.6487 5.4937 5.976 16.224 20.681 19.235 26.361.972 1.8334 3.3017 7.8664 5.1773 13.407l3.41 10.073 16.667 13.884c17.762 14.797 77.87 74.304 150.43 148.93l44.363 45.623 13.603 6.6226c7.4818 3.6422 17.764 9.8302 22.849 13.751 17.22 13.276 32.76 37.534 37.89 59.148 3.1183 13.137 4.1657 15.203 18.456 36.388 46.287 68.622 113.29 202.72 125.08 250.33 2.9876 12.066 3.0783 13.464 1.3523 20.863-3.4029 14.587-10.828 22.141-24.686 25.113-9.5816 2.055-17.973.1382-36.669-8.3757-31.192-14.204-52.865-18.712-90.667-18.857-30.903-.1186-53.85 4.2766-123.9 23.731-30.516 8.4749-52.135 14.156-52.99 13.924-.2445-.067-4.3445-1.1713-9.1112-2.456zm-1004.8-451.17c28.21-14.037 65.575-42.747 116.77-89.722 28.864-26.485 66.131-62.745 65.333-63.566-.3667-.3776-28.267 4.9324-62 11.8-33.733 6.8675-62.233 12.482-63.333 12.476-2.8065-.016 3.5434-3.2795 20.703-10.642 98.461-42.248 212.56-57.825 321.5-43.893 44.595 5.7034 66.992 11.863 137.13 37.716 44.033 16.23 77.179 23.876 116.98 26.984 14.697 1.1477 15.306.2056 8.5083-13.163-14.136-27.8-63.144-84.967-129.37-150.91-72.103-71.79-148.64-137.76-231.45-199.48-106.23-79.179-190.7-130.79-314-191.85-83.557-41.377-142.6-67.317-295.52-129.83-93.899-38.386-128.88-54.756-148.47-69.49-33.809-25.417-72.616-75.567-112.99-146.01-29.284-51.101-54.586-101.91-99.216-199.25-26.547-57.899-31.501-67.414-35.103-67.414-7.1616 0-25.174 29.378-53.418 87.125-19.545 39.96-25.963 57.475-31.834 86.875-6.0608 30.349-8.2805 52.568-9.0778 90.862-1.7446 83.795 11.29 163.4 41.76 255.03 26.482 79.641 61.668 153.05 97.752 203.94 39.328 55.468 99.498 117.65 164.11 169.61 52.762 42.425 118.67 86.894 181.33 122.34 4.0333 2.2818 6.6762 4.1619 5.8731 4.178-5.6954.1147-98.369-28.615-123.07-38.153-8.3583-3.2275-15.513-5.5521-15.899-5.1661-.38608.3861.29852 5.3125 1.5214 10.947 7.871 36.27 54.283 100.68 117.13 162.54 12.743 12.544 25.045 23.778 27.339 24.964 2.4566 1.2704 13.675 3.2816 27.306 4.8956 70.194 8.3112 121.28 20.383 157.95 37.328 24.847 11.479 41.44 25.883 60.825 52.798 11.158 15.494 16.974 22.044 21.024 23.683 1.1.4451 5.8518.5808 10.56.3018 7.1313-.4227 11.025-1.7344 23.338-7.861zm713.86-134.71c31.033-12.61 69.506-54.152 105.33-113.73l8.1345-13.529-4.6165-19.804c-25.705-110.27-68.832-198.67-120.96-247.92l-12.314-11.636 13.991 10.543c17.37 13.089 46.672 41.989 61.386 60.543 34.217 43.148 62.77 99.455 78.623 155.05 2.972 10.422 6.7817 25.55 8.4661 33.616l3.0627 14.667 17.903.417c36.462.8493 88.806-4.039 127.12-11.871 57.008-11.654 95.739-28.213 150.79-64.465 20.333-13.391 38.583-27.521 40.733-31.538.9303-1.7384.9204-3.366-.032-5.1444-1.8917-3.5347-24.845-22.216-46.525-37.866-9.8028-7.0763-17.25-12.866-16.55-12.866s7.2205.8957 14.49 1.9907c40.688 6.1278 90.281 2.8524 123.06-8.1282 15.419-5.1642 59.89-24.697 73.9-32.458 6.9779-3.8655 15.139-9.4564 18.137-12.424 13.072-12.942 5.4485-20.173-51.19-48.552l-30.64-15.352 13.306.9368c25.394 1.7876 67.593-3.1986 90.582-10.703 26.724-8.7235 51.129-24.273 74.154-47.247 16.805-16.768 25.209-28.92 26.224-37.918.7625-6.765-.099-7.6064-11.65-11.384-14.439-4.7216-78.755-17.04-109.09-20.894-8.5821-1.0903-7.6327-2.3254 3.3952-4.4168 13.403-2.5419 37.371-10.573 51.017-17.094 11.279-5.39 14.196-7.5965 26.706-20.204 21.231-21.395 39.392-49.974 38.389-60.41l-.4235-4.4094-12.667-1.2542c-17.579-1.7408-511.03-1.4496-686.09.4048l-141.42 1.4981-13.11 5.3344c-40.606 16.522-87.459 27.989-114.45 28.009-16.64.013-26.594-3.0162-52.64-16.018-46.176-23.05-93.036-54.374-139.62-93.333-92.921-77.706-153.26-158.64-165.34-221.77-8.7871-45.926 12.121-102.01 49.675-133.24 5.6803-4.7239 21.728-16.086 35.661-25.25 29.098-19.137 36.363-25.092 50.896-41.715 33.199-37.973 146.69-176 337.67-410.67l68.361-84 28.204-1.6164c52.935-3.0337 96.531-7.8926 141.54-15.775 65.81-11.525 111.93-27.206 145.47-49.456 14.911-9.8935 35.526-29.58 44.365-42.366 6.7964-9.8314 16.17-27.849 16.17-31.082 0-2.3549-9.3425-2.2078-62 .97668-61.006 3.6893-120.38 8.4653-149.33 12.012-19.356 2.371-33.428 10.653-87.598 51.559-47.998 36.245-55.788 40.024-77.794 37.742-34.893-3.6182-61.472-20.875-77.733-50.471l-3.5416-6.4455-266.67 223.93c-164.61 138.23-268.88 224.9-272.46 226.47-13.877 6.0901-87.548 33.124-116.31 42.678-50.198 16.678-73.541 21.84-87.182 19.281-7.0339-1.3196-15.698-10.348-18.762-19.551-8.895-26.717 6.369-65.978 38.778-99.744 15.264-15.903 24.669-22.68 65.934-47.509 73.053-43.956 104.07-67.05 140.71-104.78 37.955-39.077 64.53-79.351 85.758-129.96 26.519-63.229 42.294-150.94 39.788-221.22-1.3126-36.814-11.108-71.929-33.317-119.43-30.574-65.396-95.338-153.9-128.27-175.29-38.72-25.151-122.94-45.633-198-48.155-70.81-2.3785-116.82 11.134-165.92 48.733-57.573 44.083-100.83 116.2-94.242 157.11 2.9784 18.494 20.541 54.458 55.527 113.7 10.554 17.872 11.893 22.012 11.861 36.667-.0549 25.235-11.349 50.277-34.577 76.667-9.2454 10.504-13.982 18.13-13.982 22.511 0 3.976 6.2543 10.568 13.519 14.25 8.6714 4.3941 28.73 9.0379 57.147 13.23 61.175 9.0251 76.861 14.417 74.087 25.469-1.1204 4.4639-16.65 20.601-29.421 30.572-22.479 17.551-46.199 30.009-108.71 57.096-90.168 39.073-142.88 67.619-195.96 106.13-119.76 86.879-189.55 202.47-201.28 333.41-2.099 23.419-1.3538 66.701 1.1475 66.65.44131-.01 5.5532-9.9298 11.36-22.046 14.647-30.563 26.409-50.022 36.793-60.868 7.1842-7.5041 9.4196-9.0699 12.948-9.0699 7.5075 0 9.6939 3.6744 38.083 64 67.156 142.71 106.57 216.57 149.05 279.33 34.734 51.316 63.527 81.15 91.2 94.498 13.543 6.5324 40.674 17.244 115.37 45.547 150.92 57.186 254.94 101.67 357.33 152.79 160.65 80.215 263.64 148.69 374.67 249.1 75.544 68.324 141.11 139.3 224.84 243.4 17.695 21.999 34.45 42.327 37.234 45.173l5.0607 5.1747 9.4877-.7175c5.5707-.4213 12.92-2.1121 17.801-4.0955zm-937.48-2022.8c-13.006-5.0056-19.599-14.878-20.652-30.923-1.3498-20.581 10.228-36.084 31.618-42.339 24.754-7.2386 56.181 5.4725 67.461 27.286 3.2953 6.3724 4.0467 17.279 1.5262 22.153-4.7064 9.1011-18.753 17.616-36.896 22.366-12.084 3.1637-36.478 3.989-43.057 1.4568zm746.9 1403.2c81.287-10.192 193.61-83.363 318.19-207.27 69.907-69.533 134.56-145.92 174.92-206.67 30.842-46.422 36.208-61.531 29.227-82.292-13.211-39.289-65.123-130.44-133.72-234.79-10.516-15.997-19.12-29.556-19.12-30.13 0-.57422 6.75-1.4325 15-1.9072 50.58-2.9106 125.55-15.284 187-30.865 68.102-17.266 124.46-37.621 179.33-64.769 32.879-16.266 47.054-24.405 75.333-43.255 31.481-20.984 54.92-40.114 80.766-65.922 32.868-32.819 56.882-64.534 76.996-101.69 10.562-19.511 22.905-47.871 22.905-52.63 0-9.4495-19.378-25.919-46.916-39.873l-7.0697-3.5825-134.67.76957c-121.04.69167-190.48 2.0226-245.2 4.6995l-18.53.90646-4.8145 12c-13.564 33.808-36.823 58.939-74.507 80.503-57.314 32.798-159.45 55.673-274.2 61.412-21.462 1.0734-24.124 1.4674-26 3.8469-1.1492 1.458-24.04 29.258-50.87 61.778-128.57 155.84-237.41 291.84-335.96 419.79-21.742 28.229-37.875 43.325-81.259 76.035-45.21 34.087-60.239 60.893-58.291 103.96 2.1387 47.28 36.41 104.77 103.62 173.82 68.58 70.458 170.89 147.83 217.33 164.37 9.7484 3.4706 14.574 3.7472 30.507 1.7494zm645.54-469.15c19.732-2.5813 54.917-9.1012 65.617-12.159 4.728-1.3511 5-1.7251 5-6.8723 0-7.3072-5.3995-30.943-13.268-58.079-3.552-12.25-5.602-21.09-4.5556-19.646 20.073 27.711 40.918 45.864 62.785 54.678 23.598 9.5116 63.575 6.5706 107.41-7.9022 27.788-9.1739 61.399-24.938 63.205-29.643 2.0909-5.449-14.334-38.119-38.636-76.847-6.3247-10.079-11.236-18.326-10.914-18.326s3.7471 2.0208 7.6114 4.4906c3.8642 2.4698 13.026 7.4936 20.359 11.164 69.192 34.631 130.3 26.291 179.49-24.498 14.253-14.714 33.172-38.645 33.172-41.958 0-7.1154-32.291-33.462-88-71.801-9.9-6.8132-16.5-12.087-14.667-11.719 1.8333.36775 10.833 2.1854 20 4.0392 26.53 5.3654 40.487 6.835 64 6.7388 17.806-.0729 23.841-.60392 31.66-2.7858 34.922-9.7454 72.278-49.096 99.682-105 9.8741-20.145 19.01-43.031 20.265-50.762.5902-3.6368.093-4.5389-3.8368-6.9679-11.319-6.9953-51.602-17.728-113.77-30.312-34.62-7.0078-40.467-8.5102-36-9.2501 36.405-6.0297 61.446-12.242 74.667-18.523 22.729-10.799 65.355-48.196 79.93-70.125 17.151-25.805 25.702-53.271 24.482-78.635-.4957-10.308.6056-9.7917-27.079-12.706-46.62-4.9078-198.6-11.493-261.33-11.323l-20 .0541 10.734 4.3976c11.692 4.7899 23.576 11.949 28.202 16.99 4.6864 5.106 7.4042 12.925 6.388 18.378-1.6638 8.9306-12.92 36.71-22.468 55.451-19.321 37.922-44.697 71.261-81.698 107.33-86.816 84.638-207.63 146.8-358.87 184.65-42.866 10.727-100.3 21.187-135.62 24.698-8.0667.80192-16.549 1.7414-18.849 2.0878l-4.1821.6298 14.023 24.301c81.397 141.06 112.88 200.74 123.86 234.82 2.4784 7.6922 4.8116 12.504 6.6464 13.707 4.3687 2.864 17.521 7.2291 27.839 9.2395 12.678 2.4701 49.961 1.4963 76.716-2.0038z" fill="#e18700"/><path d="m2308.6 430.91c1.71 2.4717 3.9674 5.7619 4.7287 8.7605 1.7459 6.8783-.5213 20.616-4.9964 30.275-8.4348 18.206-27.931 39.692-53.053 58.468-47.981 35.861-131.21 74.408-232.28 107.59-55.772 18.308-105.43 28.432-172.37 36.377s-132.79 11.389-200.49 6.8922c68.121-21.593 124.53-47.524 145.86-59.831 47.342-27.245 80.344-53.503 99.567-79.221 8.5368-11.421 18.001-30.362 20.987-42 3.2778-12.777 2.9669-32.709-.716-45.885-1.6222-5.8032-6.46-15.922-6.46-15.922 135.18-5.6774 270.49-11.584 399.23-5.5018z" fill="url(#linearGradient1217)"/><path d="m1837.3 2802.8c-4.7667-1.2845-19.467-7.4512-32.667-13.704-31.297-14.824-52.919-23.393-65.689-26.031-9.0042-1.8604-13.521-1.9334-35.644-.5766-41.585 2.5502-66.184 6.9049-106.67 18.883-38.083 11.268-37.992 11.25-46.282 9.3206-13.733-3.1968-22.208-11.335-25.04-24.043-3.3844-15.189 3.7854-31.247 20.406-45.704 19.776-17.201 35.91-27.602 88.628-57.136 76.923-43.094 90.867-52.892 124.32-87.357 19.17-19.749 39.324-44.309 47.642-58.058l4.3426-7.1787-3.1974-7.9196c-1.7586-4.3558-3.8864-11.52-4.7286-15.92-.8421-4.4-1.7946-9.2535-2.1168-10.786-.344-1.6354-4.5882-5.4432-10.281-9.2232-5.3323-3.5408-33.01-22.582-61.506-42.314-91.694-63.493-149.02-101.01-154.35-101.01-6.3792 0-27.771-5.883-36.508-10.04-20.414-9.7126-38.663-27.539-44.226-43.201l-2.2792-6.4173-10.748-.8797c-41.352-3.3844-81.606-13.241-134.52-32.938-66.363-24.703-89.721-30.135-148.89-34.626-29.73-2.2567-93.427-.8604-119.33 2.6157-35.696 4.7899-32.484 3.9459-33.85 8.894-2.0625 7.4699-8.4449 15.201-29.668 35.939-61.096 59.698-113.37 103.57-151.81 127.41-14.987 9.295-25.331 13.879-39.134 17.341-10.843 2.7196-11.427 3.0545-12.285 7.0436-1.669 7.761-8.3876 20.839-16.379 31.882-23.675 32.715-55.9 51.672-87.758 51.624-13.082-.02-30.113-4.1637-57.264-13.934-14.832-5.3373-23.621-7.6996-32.132-8.6373-29.829-3.2863-97.131-5.8812-155.05-5.9781l-60.667-.1014-12 9.2183c-6.6 5.07-16.331 11.278-21.624 13.794l-9.6237 4.576.70942 6.2057c1.3793 12.066 4.7451 25.556 6.9185 27.729 1.9287 1.9285 4.6316 2.0959 21.837 1.3512 21.856-.946 36.135-2.8557 66.033-8.8313l20.251-4.0475 9.717 2.3321c8.5204 2.045 10.545 3.1599 16.439 9.0543 5.963 5.9631 6.9851 7.8459 9.0494 16.67 2.8571 12.213 2.8368 13.935-.3224 27.267-1.3883 5.8588-2.2606 10.916-1.9384 11.238.32224.3222 5.5286.9805 11.57 1.4628 15.19 1.2126 34.955-.6379 57.219-5.3571 20.833-4.4161 24.996-4.7153 34.175-2.4565 11.677 2.8738 19.838 11.657 22.845 24.588 1.3543 5.8245 1.2157 8.205-.97 16.667-3.4152 13.222-9.9833 28.622-16.561 38.832-6.5584 10.18-20.789 28.507-25.594 32.962l-3.5108 3.2551 11.959 2.8707c17.834 4.2805 26.769 12.268 29.624 26.483 3.7342 18.594-6.2464 35.023-27.965 46.034-6.882 3.4889-30.877 9.8627-47.57 12.636-25.769 4.2812-44.392 5.328-94.667 5.3216-58.257-.013-90.037-1.9443-108.46-6.6096-31.783-8.0497-119.9-62.224-145.71-89.574-16.389-17.373-17.65-22.468-23.85-96.338-6.9484-82.794-11.33-118.88-15.41-126.92-1.2315-2.4265-7.0112-12.377-12.844-22.112-13.357-22.294-18.851-34.241-21.702-47.192-2.1144-9.6045-2.1136-10.9.0127-21.333 1.245-6.1095 3.8177-15.303 5.717-20.43 7.5142-20.284 29.257-46.737 46.806-56.945 14.7-8.5508 27.887-10.936 61.433-11.114l28.667-.1519 52.667-10.808c100.81-20.687 144.67-30.015 145.76-30.994.60132-.5418-4.741-7.2131-11.872-14.825-38.937-41.564-74.601-89.36-89.828-120.38-7.108-14.482-14.727-40.376-14.727-50.053 0-6.6387 2.9908-16.241 6.6664-21.403l2.9855-4.1928-3.1593-2.1997c-15.748-10.964-50.127-38.32-76.493-60.864-24.628-21.059-77.687-74.147-96.69-96.744-26.12-31.059-52.296-67.669-69.968-97.856-9.2888-15.867-29.383-57.098-40.359-82.81-25.398-59.499-43.134-114.27-56.854-175.57-22.064-98.581-24.925-185.47-8.7322-265.23 6.01-29.606 12.424-51.421 19.983-67.968 5.5037-12.047 6.5839-15.531 5.5108-17.774-4.6981-9.8194-7.1677-42.37-5.4916-72.381 2.6248-46.996 14.671-101 32.213-144.41 34.008-84.158 92.394-157.63 173.72-218.61 57.519-43.13 114.9-74.851 210-116.09 45.587-19.767 69.229-31.252 87.136-42.329l12.157-7.5198-20.646-3.025c-25.186-3.6901-50.92-9.0511-62.956-13.115-7.9182-2.6734-11.839-4.6982-24.289-12.543-2.7151-1.7107-4.8398-1.355-21.54 3.6066-53.712 15.958-118.1 29.426-163.92 34.289-21.262 2.2563-64.777 2.5943-78.603.6106-12.863-1.8457-37.48-7.8198-44.362-10.766-8.1294-3.4804-18.4-14.196-20.465-21.351-5.5083-19.085 2.3054-36.209 20.564-45.069 11.239-5.4533 22.808-8.6024 80.959-22.038 54.343-12.556 87.154-21.2 104.31-27.479 12.184-4.4596 47.975-21.368 47.095-22.248-.30747-.30747-11.256-1.101-24.33-1.7634-29.369-1.4879-58.324-4.3684-87.104-8.665-81.142-12.114-186.81-41.924-207.13-58.433-9.0858-7.3833-14.587-16.828-17.409-29.891-2.2321-10.331-2.2185-10.871.56996-22.749 2.2781-9.7036 4.01-13.734 8.5551-19.908 13.117-17.819 18.913-20.444 75.41-34.164 83.5-20.277 130.65-35.428 179.17-57.575 30.987-14.144 74.557-38.941 109.49-62.317 13.17-8.8114 17.769-11.135 26-13.135 9.4396-2.2935 10.523-2.3064 19.333-.23102 5.1333 1.2092 10.16 2.6351 11.17 3.1686 1.2566.66346 4.67-2.2448 10.801-9.2031 32.195-36.536 79.339-68.79 118.69-81.207 32.096-10.126 58.288-13.836 97.333-13.788 38.948.048239 75.205 4.1363 114.95 12.96 53.161 11.804 89.977 25.334 114.8 42.188 23.502 15.96 59.665 58.521 93.229 109.72 46.941 71.608 73.488 137.36 79.775 197.59 2.5536 24.465-1.2067 80.988-8.1877 123.07-22.617 136.34-81.989 236.41-187.23 315.56-17.612 13.245-48.732 33.567-83.333 54.415-17.967 10.826-36.993 22.669-42.281 26.319-26.112 18.022-50.488 53.513-52.085 75.833l-.67254 9.3997 5.186-.89689c23.71-4.1005 86.855-25.233 161.68-54.109l15.162-5.8512 262.84-220.6c144.56-121.33 267.8-224.35 273.85-228.93 12.428-9.3974 28.611-18.757 55.758-32.248 25.558-12.702 46.892-20.976 68.365-26.512 15.228-3.9262 21.236-4.7979 36.86-5.3484 16.864-.5942 20.051-.32347 33.005 2.8035 19.753 4.7682 32.174 11.422 43.026 23.048l5.3648 5.7471 9.9686-1.9483c20.689-4.0437 125.05-12.078 207.3-15.96 111.56-5.2648 276.97-8.189 366-6.4701 31.167.60173 59.367 1.0054 62.667.89699 25.186-.82728 163.8 3.3894 227.33 6.9156 66.112 3.6693 93.43 7.1788 104.21 13.388 12.344 7.1111 16.782 17.798 16.648 40.086-.1885 31.466-10.432 62.858-29.958 91.807-9.7155 14.404-40.499 45.639-56.429 57.256l-10.864 7.923 19.742 5.6627c35.831 10.278 48.115 19.237 51.861 37.825 1.304 6.4706 1.0931 8.7639-1.7925 19.493-6.1766 22.964-20.095 54.558-35.225 79.959-19.488 32.719-45.791 62.021-70.19 78.195-16.169 10.719-21.702 13.168-38.528 17.056l-13.02 3.0086 7.8621 8.1442c11.395 11.804 14.57 16.692 17.046 26.246 1.8723 7.2252 1.9608 9.6758.5839 16.164-1.7211 8.1096-2.7283 9.7836-15.191 25.248-24.223 30.057-37.764 43.392-58.432 57.542-31.135 21.317-74.193 31.49-110.99 26.222-5.1333-.7349-10.28-1.6307-11.437-1.9906-1.7644-.5488-1.5828.8994 1.1249 8.973 6.8268 20.355 4.9778 33.928-6.114 44.882-18.626 18.394-86.502 43.752-132.66 49.562-22.334 2.8112-54.72.051-70.336-5.9947-1.6338-.6325-2.4408.6976-3.6797 6.0646-1.7872 7.7427-7.4713 15.717-14.142 19.84-4.7423 2.9309-35.145 10.241-60.752 14.607-26.068 4.4449-54.394 7.0402-76.667 7.0243-17.867-.013-23.561-.5397-35.044-3.2426l-13.71-3.2272-4.9473 9.4455c-6.9495 13.268-33.169 52.398-51.001 76.112-44.857 59.655-86.98 107.78-145.92 166.71-50.379 50.372-89.964 85.316-134.69 118.9l-18.645 14.001 54.645-.8977c100.62-1.6529 517.59-3.0075 609.98-1.9815 99.979 1.1103 108.86 1.7784 118.42 8.9096 6.8605 5.1151 11.686 12.789 13.542 21.534 1.4681 6.9182 1.3873 9.2948-.6029 17.739-4.3804 18.586-17.471 40.424-39.813 66.419-6.5006 7.5635-9.7003 12.248-8.6132 12.61.951.3166 6.8293 1.8867 13.063 3.4891 22.302 5.7331 32.709 14.417 36.676 30.602 2.1038 8.5848 2.118 10.017.1839 18.581-1.1527 5.1037-3.5637 12.153-5.3581 15.664-19.04 37.262-75.598 81.694-117.59 92.378l-6.7548 1.7187 5.5383 8.259c14.808 22.082 8.8024 45.926-16.024 63.626-16.068 11.456-63.409 33.911-91.328 43.32-11.818 3.9823-41.212 10.55-53.028 11.848-5.9332.6517-7.9946 1.3496-7.1182 2.4097.6786.8208 1.9684 5.0924 2.8661 9.4924 2.256 11.057.1643 20.551-6.4661 29.348-15.684 20.81-89.811 67.797-135.74 86.043-43.77 17.387-114.87 30.844-174.76 33.075-13.332.4968-24.67 1.3328-25.195 1.8579-.5251.5252 1.4008 3.5171 4.2797 6.6487 5.4937 5.976 16.224 20.681 19.235 26.361.972 1.8334 3.3017 7.8664 5.1773 13.407l3.41 10.073 16.667 13.884c17.762 14.797 77.87 74.304 150.43 148.93l44.363 45.623 13.603 6.6226c7.4818 3.6422 17.764 9.8302 22.849 13.751 17.22 13.276 32.76 37.534 37.89 59.148 3.1183 13.137 4.1657 15.203 18.456 36.388 46.287 68.622 113.29 202.72 125.08 250.33 2.9876 12.066 3.0783 13.464 1.3523 20.863-3.4029 14.587-10.828 22.141-24.686 25.113-9.5816 2.055-17.973.1382-36.669-8.3757-31.192-14.204-52.865-18.712-90.667-18.857-30.903-.1186-53.85 4.2766-123.9 23.731-30.516 8.4749-52.135 14.156-52.99 13.924-.2445-.067-4.3445-1.1713-9.1112-2.456zm40.109-37.475c36.692-10.345 75.754-20.135 98.558-24.702 32.58-6.5258 71.458-5.9323 105.28 1.607 17.852 3.9795 27.341 7.2631 47.29 16.364 8.0133 3.6562 15.063 6.3424 15.667 5.9695 1.8932-1.17 1.238-4.5404-3.6823-18.94-18.604-54.446-78.79-171.69-118.5-230.83-15.81-23.549-16.91-25.722-20.614-40.727-4.0792-16.527-10.771-28.664-22.255-40.365-8.2678-8.4236-11.542-10.647-25.335-17.203-12.403-5.8956-17.689-9.2938-24.36-15.66-4.6857-4.4714-36.848-37.53-71.472-73.463-71.689-74.4-106.26-107.78-132.16-127.62-7.4702-5.7222-8.3295-6.922-10.484-14.639-5.4429-19.494-13.916-32.633-33.367-51.74-7.4506-7.3188-9.0165-8.3265-10.068-6.4797-.6851 1.2028-7.4866 10.503-15.114 20.667-24.11 32.125-47.083 55.953-66.954 69.443-15.608 10.596-51.226 26.536-65.022 29.099-4.9479.9192-5.1183 1.1262-4.4282 5.3787 2.1126 13.018 13.354 25.472 30.472 33.758 9.1151 4.412 14.011 5.8525 24.576 7.2312l13.193 1.7216 20 12.428c24.39 15.156 80.615 52.914 141.33 94.915 24.933 17.247 52.911 36.545 62.172 42.885 9.2616 6.3397 17.285 12.598 17.83 13.908.545 1.3093 1.4534 7.5937 2.0186 13.965.8874 10.002 1.9375 13.489 7.6882 25.527l6.6604 13.943-5.1219 9.439c-12.695 23.397-36.934 54.344-63.789 81.443-33.072 33.374-53.374 47.223-140.79 96.045-46.395 25.911-74.021 45.789-80.175 57.689l-2.0585 3.9808 4.4501-.6084c2.4475-.3346 14.35-3.6476 26.45-7.3621 46.801-14.367 91.386-21.682 132.15-21.682 17.558 0 22.805.4996 33.342 3.1744 15.895 4.035 39.348 13.42 69.838 27.945 13.2 6.2886 24.949 11.459 26.109 11.49 1.1599.031 14.96-3.5664 30.667-7.9945zm-1364.1-28.008c45.754-3.2324 72.724-9.9252 82.582-20.494 4.3969-4.7135 2.8849-5.8804-11.464-8.8485-26.951-5.5748-35.118-11.603-35.118-25.919 0-8.5126 3.1393-13.866 17.687-30.163 13.878-15.546 21.182-25.672 27.302-37.85 4.8316-9.614 9.1781-22.944 7.8984-24.224-.50751-.5074-9.7648.9844-20.572 3.3155-25.542 5.5093-35.514 6.8497-51.198 6.8819-22.41.045-42.69-5.5272-56.252-15.458-7.518-5.5056-7.5168-5.1548-.0795-21.849 4.2255-9.4848 5.0625-12.856 5.1314-20.667.0768-8.702-.1212-9.3623-2.9276-9.7607-1.6554-.2351-13.655 1.6792-26.667 4.2539-13.011 2.5746-29.91 5.3922-37.552 6.2613-17.611 2.0025-64.355 1.1377-67.225-1.2439-5.6173-4.6618-15.389-38.818-16.495-57.656-1.3879-23.638.64188-26.988 22.807-37.646 11.187-5.3785 17.243-9.2881 23.601-15.236 5.4348-5.084 10.494-8.5477 13.879-9.5014 16.625-4.6847 81.397-4.9794 168.66-.7675 69.477 3.3535 74.442 4.1123 108.58 16.597 24.264 8.8738 38.322 11.657 49.344 9.769 22.695-3.8876 49.327-25.917 62.042-51.32 6.596-13.178 7.555-19.377 4.7138-30.469-6.317-24.663-22.808-46.843-46.16-62.084-33.768-22.039-111.26-43.092-193.34-52.526l-12.822-1.4737-70.511 14.828c-82.604 17.371-161.26 33.503-179.18 36.75-9.1362 1.6554-20.471 2.3318-40.667 2.427-27.301.1293-28.183.219-35.333 3.618-4.0333 1.9173-9.7333 5.4144-12.667 7.7713-16.298 13.096-31.333 40.267-31.333 56.625 0 6.9584 7.209 22.101 22.49 47.24 5.9473 9.7843 11.74 20.884 12.872 24.667 4.8873 16.327 9.778 56.642 15.958 131.54 4.6209 56.007 5.7772 65.237 8.7867 70.142 9.8125 15.993 69.213 56.28 118.81 80.581 18.664 9.1446 22.383 9.9218 56.42 11.789 29.398 1.6128 95.767 1.667 118 .096zm319.23-385.69c28.21-14.037 65.575-42.747 116.77-89.722 28.864-26.485 66.131-62.745 65.333-63.566-.3667-.3776-28.267 4.9324-62 11.8-33.733 6.8675-62.233 12.482-63.333 12.476-2.8065-.016 3.5434-3.2795 20.703-10.642 98.461-42.248 212.56-57.825 321.5-43.893 44.595 5.7034 66.992 11.863 137.13 37.716 44.033 16.23 77.179 23.876 116.98 26.984 14.697 1.1477 15.306.2056 8.5083-13.163-14.136-27.8-63.144-84.967-129.37-150.91-72.103-71.79-148.64-137.76-231.45-199.48-106.23-79.179-190.7-130.79-314-191.85-83.557-41.377-142.6-67.317-295.52-129.83-93.899-38.386-128.88-54.756-148.47-69.49-33.809-25.417-72.616-75.567-112.99-146.01-29.284-51.101-54.586-101.91-99.216-199.25-26.547-57.899-31.501-67.414-35.103-67.414-7.1616 0-25.174 29.378-53.418 87.125-19.545 39.96-25.963 57.475-31.834 86.875-6.0608 30.349-8.2805 52.568-9.0778 90.862-1.7446 83.795 11.29 163.4 41.76 255.03 26.482 79.641 61.668 153.05 97.752 203.94 39.328 55.468 99.498 117.65 164.11 169.61 52.762 42.425 118.67 86.894 181.33 122.34 4.0333 2.2818 6.6762 4.1619 5.8731 4.178-5.6954.1147-98.369-28.615-123.07-38.153-8.3583-3.2275-15.513-5.5521-15.899-5.1661-.38608.3861.29852 5.3125 1.5214 10.947 7.871 36.27 54.283 100.68 117.13 162.54 12.743 12.544 25.045 23.778 27.339 24.964 2.4566 1.2704 13.675 3.2816 27.306 4.8956 70.194 8.3112 121.28 20.383 157.95 37.328 24.847 11.479 41.44 25.883 60.825 52.798 11.158 15.494 16.974 22.044 21.024 23.683 1.1.4451 5.8518.5808 10.56.3018 7.1313-.4227 11.025-1.7344 23.338-7.861zm713.86-134.71c31.033-12.61 69.506-54.152 105.33-113.73l8.1345-13.529-4.6165-19.804c-25.705-110.27-68.832-198.67-120.96-247.92l-12.314-11.636 13.991 10.543c17.37 13.089 46.672 41.989 61.386 60.543 34.217 43.148 62.77 99.455 78.623 155.05 2.972 10.422 6.7817 25.55 8.4661 33.616l3.0627 14.667 17.903.417c36.462.8493 88.806-4.039 127.12-11.871 57.008-11.654 95.739-28.213 150.79-64.465 20.333-13.391 38.583-27.521 40.733-31.538.9303-1.7384.9204-3.366-.032-5.1444-1.8917-3.5347-24.845-22.216-46.525-37.866-9.8028-7.0763-17.25-12.866-16.55-12.866s7.2205.8957 14.49 1.9907c40.688 6.1278 90.281 2.8524 123.06-8.1282 15.419-5.1642 59.89-24.697 73.9-32.458 6.9779-3.8655 15.139-9.4564 18.137-12.424 13.072-12.942 5.4485-20.173-51.19-48.552l-30.64-15.352 13.306.9368c25.394 1.7876 67.593-3.1986 90.582-10.703 26.724-8.7235 51.129-24.273 74.154-47.247 16.805-16.768 25.209-28.92 26.224-37.918.7625-6.765-.099-7.6064-11.65-11.384-14.439-4.7216-78.755-17.04-109.09-20.894-8.5821-1.0903-7.6327-2.3254 3.3952-4.4168 13.403-2.5419 37.371-10.573 51.017-17.094 11.279-5.39 14.196-7.5965 26.706-20.204 21.231-21.395 39.392-49.974 38.389-60.41l-.4235-4.4094-12.667-1.2542c-17.579-1.7408-511.03-1.4496-686.09.4048l-141.42 1.4981-13.11 5.3344c-40.606 16.522-87.459 27.989-114.45 28.009-16.64.013-26.594-3.0162-52.64-16.018-46.176-23.05-93.036-54.374-139.62-93.333-92.921-77.706-153.26-158.64-165.34-221.77-8.7871-45.926 12.121-102.01 49.675-133.24 5.6803-4.7239 21.728-16.086 35.661-25.25 29.098-19.137 36.363-25.092 50.896-41.715 33.199-37.973 146.69-176 337.67-410.67l68.361-84 28.204-1.6164c52.935-3.0337 96.531-7.8926 141.54-15.775 65.81-11.525 111.93-27.206 145.47-49.456 14.911-9.8935 35.526-29.58 44.365-42.366 6.7964-9.8314 16.17-27.849 16.17-31.082 0-2.3549-9.3425-2.2078-62 .97668-61.006 3.6893-120.38 8.4653-149.33 12.012-19.356 2.371-33.428 10.653-87.598 51.559-47.998 36.245-55.788 40.024-77.794 37.742-34.893-3.6182-61.472-20.875-77.733-50.471l-3.5416-6.4455-266.67 223.93c-164.61 138.23-268.88 224.9-272.46 226.47-13.877 6.0901-87.548 33.124-116.31 42.678-50.198 16.678-73.541 21.84-87.182 19.281-7.0339-1.3196-15.698-10.348-18.762-19.551-8.895-26.717 6.369-65.978 38.778-99.744 15.264-15.903 24.669-22.68 65.934-47.509 73.053-43.956 104.07-67.05 140.71-104.78 37.955-39.077 64.53-79.351 85.758-129.96 26.519-63.229 42.294-150.94 39.788-221.22-1.3126-36.814-11.108-71.929-33.317-119.43-30.574-65.396-95.338-153.9-128.27-175.29-38.72-25.151-122.94-45.633-198-48.155-70.81-2.3785-116.82 11.134-165.92 48.733-57.573 44.083-100.83 116.2-94.242 157.11 2.9784 18.494 20.541 54.458 55.527 113.7 10.554 17.872 11.893 22.012 11.861 36.667-.0549 25.235-11.349 50.277-34.577 76.667-9.2454 10.504-13.982 18.13-13.982 22.511 0 3.976 6.2543 10.568 13.519 14.25 8.6714 4.3941 28.73 9.0379 57.147 13.23 61.175 9.0251 76.861 14.417 74.087 25.469-1.1204 4.4639-16.65 20.601-29.421 30.572-22.479 17.551-46.199 30.009-108.71 57.096-90.168 39.073-142.88 67.619-195.96 106.13-119.76 86.879-189.55 202.47-201.28 333.41-2.099 23.419-1.3538 66.701 1.1475 66.65.44131-.01 5.5532-9.9298 11.36-22.046 14.647-30.563 26.409-50.022 36.793-60.868 7.1842-7.5041 9.4196-9.0699 12.948-9.0699 7.5075 0 9.6939 3.6744 38.083 64 67.156 142.71 106.57 216.57 149.05 279.33 34.734 51.316 63.527 81.15 91.2 94.498 13.543 6.5324 40.674 17.244 115.37 45.547 150.92 57.186 254.94 101.67 357.33 152.79 160.65 80.215 263.64 148.69 374.67 249.1 75.544 68.324 141.11 139.3 224.84 243.4 17.695 21.999 34.45 42.327 37.234 45.173l5.0607 5.1747 9.4877-.7175c5.5707-.4213 12.92-2.1121 17.801-4.0955zm-190.58-619.6c81.287-10.192 193.61-83.363 318.19-207.27 69.907-69.533 134.56-145.92 174.92-206.67 30.842-46.422 36.208-61.531 29.227-82.292-13.211-39.289-65.123-130.44-133.72-234.79-10.516-15.997-19.12-29.556-19.12-30.13 0-.57422 6.75-1.4325 15-1.9072 50.58-2.9106 125.55-15.284 187-30.865 68.102-17.266 124.46-37.621 179.33-64.769 32.879-16.266 47.054-24.405 75.333-43.255 31.481-20.984 54.92-40.114 80.766-65.922 32.868-32.819 56.882-64.534 76.996-101.69 10.562-19.511 22.905-47.871 22.905-52.63 0-9.4495-19.378-25.919-46.916-39.873l-7.0697-3.5825-134.67.76957c-121.04.69167-190.48 2.0226-245.2 4.6995l-18.53.90646-4.8145 12c-13.564 33.808-36.823 58.939-74.507 80.503-57.314 32.798-159.45 55.673-274.2 61.412-21.462 1.0734-24.124 1.4674-26 3.8469-1.1492 1.458-24.04 29.258-50.87 61.778-128.57 155.84-237.41 291.84-335.96 419.79-21.742 28.229-37.875 43.325-81.259 76.035-45.21 34.087-60.239 60.893-58.291 103.96 2.1387 47.28 36.41 104.77 103.62 173.82 68.58 70.458 170.89 147.83 217.33 164.37 9.7484 3.4706 14.574 3.7472 30.507 1.7494zm645.54-469.15c19.732-2.5813 54.917-9.1012 65.617-12.159 4.728-1.3511 5-1.7251 5-6.8723 0-7.3072-5.3995-30.943-13.268-58.079-3.552-12.25-5.602-21.09-4.5556-19.646 20.073 27.711 40.918 45.864 62.785 54.678 23.598 9.5116 63.575 6.5706 107.41-7.9022 27.788-9.1739 61.399-24.938 63.205-29.643 2.0909-5.449-14.334-38.119-38.636-76.847-6.3247-10.079-11.236-18.326-10.914-18.326s3.7471 2.0208 7.6114 4.4906c3.8642 2.4698 13.026 7.4936 20.359 11.164 69.192 34.631 130.3 26.291 179.49-24.498 14.253-14.714 33.172-38.645 33.172-41.958 0-7.1154-32.291-33.462-88-71.801-9.9-6.8132-16.5-12.087-14.667-11.719 1.8333.36775 10.833 2.1854 20 4.0392 26.53 5.3654 40.487 6.835 64 6.7388 17.806-.0729 23.841-.60392 31.66-2.7858 34.922-9.7454 72.278-49.096 99.682-105 9.8741-20.145 19.01-43.031 20.265-50.762.5902-3.6368.093-4.5389-3.8368-6.9679-11.319-6.9953-51.602-17.728-113.77-30.312-34.62-7.0078-40.467-8.5102-36-9.2501 36.405-6.0297 61.446-12.242 74.667-18.523 22.729-10.799 65.355-48.196 79.93-70.125 17.151-25.805 25.702-53.271 24.482-78.635-.4957-10.308.6056-9.7917-27.079-12.706-46.62-4.9078-198.6-11.493-261.33-11.323l-20 .0541 10.734 4.3976c11.692 4.7899 23.576 11.949 28.202 16.99 4.6864 5.106 7.4042 12.925 6.388 18.378-1.6638 8.9306-12.92 36.71-22.468 55.451-19.321 37.922-44.697 71.261-81.698 107.33-86.816 84.638-207.63 146.8-358.87 184.65-42.866 10.727-100.3 21.187-135.62 24.698-8.0667.80192-16.549 1.7414-18.849 2.0878l-4.1821.6298 14.023 24.301c81.397 141.06 112.88 200.74 123.86 234.82 2.4784 7.6922 4.8116 12.504 6.6464 13.707 4.3687 2.864 17.521 7.2291 27.839 9.2395 12.678 2.4701 49.961 1.4963 76.716-2.0038zm-456.37-596.8c16.568-3.9062 28.009-11.428 51.89-34.111 7.4637-7.0895 21.375-19.27 30.914-27.067 16.463-13.457 22.848-19.705 22.848-22.358 0-.65082-2.3757-3.7606-5.2793-6.9107-11.671-12.661-32.65-18.281-58.812-15.756-23.883 2.3057-47.441 10.101-83.242 27.545-14.573 7.1007-46.278 24.498-48.264 26.484-.9506.95054 4.7918 11.527 11.069 20.386 18.919 26.703 49.009 38.829 78.875 31.787zm-1286.3-4.0695c48.713-5.666 117.64-20.834 162.67-35.796l14-4.6522 12.867-13.276c13.995-14.44 29.918-37.141 34.606-49.338 8.043-20.924 2.6132-33.527-14.444-33.527-8.5395 0-18.858 5.0338-49.821 24.303-69.278 43.116-87.129 49.94-196.28 75.037-51.464 11.833-68.757 16.495-77.259 20.831-6.1926 3.1582-6.5906 6.9381-1.033 9.812 5.6941 2.9445 24.485 7.1818 38.227 8.6199 15.514 1.6235 53.893.61318 76.472-2.013zm186-151.26c20.424-1.9451 25.193-3.2232 28.725-7.699 6.8223-8.6445 1.2062-24.639-21.407-60.968-16.581-26.637-29.72-52.577-31.93-63.035-1.381-6.5363-1.4415-10.346-.2764-17.401 3.365-20.376 14.181-45.984 28.93-68.494l8.7994-13.43-4.2992-4.4356c-5.0765-5.2376-11.505-8.5386-16.629-8.5386-2.4141 0-10.617 4.5321-23.798 13.148-94.907 62.036-157.88 87.815-294.69 120.63-43.959 10.543-50.139 12.998-56.347 22.379-4.7077 7.1138-5.5731 17.348-2.0164 23.846 3.2408 5.9212 8.876 9.1034 29.61 16.721 67.148 24.669 156.78 42.949 238.05 48.549 22.101 1.5228 96.413.71856 117.29-1.2692z" fill="#432b2b"/><path d="m608.94 194.05c-13.006-5.0056-19.599-14.878-20.652-30.923-1.3498-20.581 10.228-36.084 31.618-42.339 24.754-7.2386 56.181 5.4725 67.461 27.286 3.2953 6.3724 4.0467 17.279 1.5263 22.153-4.7064 9.1011-18.753 17.616-36.896 22.366-12.084 3.1637-36.478 3.989-43.057 1.4568z"/></g></g></g></svg>
